<svg width="1749" height="85" viewBox="0 0 1749 85" fill="none" xmlns="http://www.w3.org/2000/svg">
<path fill-rule="evenodd" clip-rule="evenodd" d="M805 14H854.3C854.9 14.1 855.5 14.1 856.1 14.1C860.3 14.5 864.4 16.1 867.7 18.7C870.8 21 873.2 24 874.8 27.4C876.4 30.7 877.1 34.3 877 37.9C881.733 37.9 886.433 37.9 891.1 37.9C892 37.9 892.9 37.9 893.8 38C897.6 38.2 901.4 39.3 904.7 41.3C909.6 44.2 913.4 49 915.1 54.5C916.2 58.2 916.5 62.2 915.7 66C902.833 65.9333 889.933 65.9333 877 66C874.6 65.9 872.1 66 869.7 65.7C865.8 65.3 862 64.1 858.6 62.2C851.9 58.5 846.8 52.1 844.6 44.8C844.267 43.6667 844 42.5333 843.8 41.4C840.533 41.4 837.267 41.4 834 41.4C830.1 41.4 826.2 40.6 822.6 39C818 37 813.9 33.8 810.9 29.8C808.2 26.3 806.2 22.2 805.4 17.8C805.2 16.6667 805.067 15.4667 805 14.2V14ZM830.8 23.3C830.8 26.3 830.8 29.3 830.8 32.3C831.8 32.3 832.767 32.3 833.7 32.3C833.7 30.5667 833.7 28.8 833.7 27C833.7 27 833.8 27 833.9 27C834.433 28.7333 834.967 30.5 835.5 32.3C836.233 32.3 836.933 32.3 837.6 32.3C838.133 30.5 838.7 28.7 839.3 26.9C839.3 27 839.4 27 839.4 27C839.4 28.8 839.4 30.6 839.4 32.3C840.4 32.3 841.367 32.3 842.3 32.3C842.3 29.3 842.3 26.2667 842.3 23.2C841.367 23.2 840.4 23.2333 839.4 23.3C838.7 23.3 838 23.8 837.9 24.4C837.5 25.7333 837.1 27.0333 836.7 28.3C836.7 28.4 836.7 28.6 836.6 28.6C836.4 28.6 836.4 28.4 836.4 28.3C836 27.0333 835.633 25.7333 835.3 24.4C835.1 23.8 834.4 23.3 833.7 23.3C832.767 23.2333 831.8 23.2333 830.8 23.3ZM843.5 32.3C844.5 32.3 845.467 32.3 846.4 32.3C846.4 29.3 846.4 26.2667 846.4 23.2C845.467 23.2 844.5 23.2 843.5 23.2C843.5 26.2667 843.5 29.3 843.5 32.3ZM847.4 23.3C847.4 25.2 849.2 26.9 851.2 27C853.067 27 854.933 27 856.8 27C856.9 26.5 856.8 25.9 856.6 25.4C856.2 24.2 855 23.3 853.8 23.3C851.667 23.2333 849.533 23.2333 847.4 23.3ZM847.6 27.5C847.6 29.1 847.6 30.7 847.6 32.3C848.533 32.3 849.5 32.3 850.5 32.3C850.5 31.4333 850.5 30.5333 850.5 29.6C850.9 29.6 851.3 29.6 851.7 29.6C852.233 30.5333 852.767 31.4333 853.3 32.3C854.433 32.3 855.567 32.3 856.7 32.3C856.033 31.3667 855.367 30.4 854.7 29.4C855.6 29.1 856.4 28.4 856.7 27.6C853.7 27.5333 850.667 27.5 847.6 27.5ZM877 38.6C876.933 39.6 876.833 40.5667 876.7 41.5C865.967 41.5 855.233 41.5 844.5 41.5C845.1 45.5 846.7 49.3 849 52.6C851.3 55.9 854.2 58.8 857.6 60.9C861.2 63.2 865.3 64.6 869.5 65.1C871.8 65.4 874.2 65.4 876.5 65.4C889.367 65.4 902.267 65.4 915.2 65.4C915.9 61.6 915.5 57.6 914.2 54C912.5 48.9 908.9 44.6 904.3 41.8C900.9 39.8 897 38.7 893.1 38.6C887.7 38.6 882.333 38.6 877 38.6ZM864 47.4C864.2 47.4 864.4 47.4 864.6 47.4C866 50.4 867.433 53.4333 868.9 56.5C868.633 56.5 868.367 56.5 868.1 56.5C867.7 55.7 867.3 54.8667 866.9 54C865.167 54 863.4 54 861.6 54C861.2 54.8667 860.833 55.7 860.5 56.5C860.233 56.5 859.967 56.5 859.7 56.5C861.1 53.5 862.533 50.4667 864 47.4ZM861.9 53.4C863.5 53.4 865.067 53.4 866.6 53.4C865.867 51.6667 865.1 49.9333 864.3 48.2C863.5 49.9333 862.7 51.6667 861.9 53.4ZM899.3 47.8C899.5 47.8 899.7 47.8 899.9 47.8C899.9 48.4667 899.9 49.1667 899.9 49.9C900.7 49.9 901.467 49.9 902.2 49.9C902.2 50.1 902.2 50.3 902.2 50.5C901.467 50.5 900.7 50.5 899.9 50.5C899.9 51.9667 899.9 53.4 899.9 54.8C899.9 55.3 900.1 55.7 900.5 55.9C901 56.1 901.7 56 902.2 55.8C902.2 56 902.2 56.2 902.2 56.4C901.5 56.8 900.5 56.8 899.8 56.3C899.4 55.9 899.3 55.4 899.3 54.9C899.3 53.4333 899.3 51.9667 899.3 50.5C898.967 50.5 898.633 50.5 898.3 50.5C898.3 50.3 898.3 50.1 898.3 49.9C898.633 49.9 898.967 49.9 899.3 49.9C899.3 49.1667 899.3 48.4667 899.3 47.8ZM870.2 51.1C871.1 49.9 872.6 49.5 874 49.9C874.6 50.1 875.1 50.5 875.6 51C875.4 51.1333 875.233 51.3 875.1 51.5C874.5 50.9 873.8 50.4 872.9 50.4C872 50.3 871.1 50.8 870.7 51.6C870 52.7 870.1 54.1 870.8 55C871.4 55.7 872.2 56.1 873.1 56.1C873.9 56 874.6 55.6 875.1 55C875.3 55.1333 875.467 55.2667 875.6 55.4C875 56.1 874.2 56.6 873.3 56.7C872.2 56.8 871.1 56.4 870.3 55.5C869.3 54.3 869.2 52.3 870.2 51.1ZM877.3 50.8C878.3 49.7 880.2 49.4 881.5 50.2C881.833 50.4667 882.133 50.7333 882.4 51C882.267 51.1333 882.1 51.3 881.9 51.5C881.4 50.9 880.7 50.4 879.9 50.4C878.9 50.3 877.9 50.9 877.4 51.8C876.8 53 877 54.6 878.1 55.5C878.8 56.1 880 56.3 880.9 55.8C881.3 55.6 881.7 55.3 882 55C882.133 55.1333 882.3 55.2667 882.5 55.4C881.9 56.1 881 56.6 880.1 56.7C878.8 56.8 877.6 56.2 876.9 55.2C876 53.8 876.2 52 877.3 50.8ZM884.5 50.4C885.5 49.5 887.3 49.5 888.3 50.5C889.2 51.2 889.5 52.4 889.4 53.5C887.6 53.5 885.767 53.5 883.9 53.5C884 54.5 884.6 55.6 885.6 55.9C886.7 56.3 888 55.9 888.8 55C888.933 55.1333 889.067 55.2667 889.2 55.4C888.7 56.1 887.9 56.6 887 56.7C886 56.8 885 56.5 884.3 55.8C882.8 54.4 882.9 51.7 884.5 50.4ZM885.1 50.7C884.4 51.2 884 52.1 883.9 52.9C885.5 52.9 887.1 52.9 888.7 52.9C888.6 52.1 888.4 51.4 887.8 50.9C887.1 50.2 885.9 50.2 885.1 50.7ZM891.6 51.3C892.1 50.5 892.9 49.9 893.9 49.8C895.3 49.6 896.7 50.4 897.2 51.6C897.8 52.9 897.6 54.4 896.8 55.5C896 56.5 894.7 56.9 893.5 56.6C892.7 56.4 892.1 55.8 891.6 55.2C891.6 56.3333 891.6 57.4667 891.6 58.6C891.4 58.6 891.167 58.6 890.9 58.6C890.9 55.7333 890.9 52.8333 890.9 49.9C891.167 49.9 891.4 49.9 891.6 49.9C891.6 50.3667 891.6 50.8333 891.6 51.3ZM893.5 50.5C893.1 50.6333 892.767 50.8333 892.5 51.1C891.5 52 891.3 53.6 892 54.8C892.4 55.5 893.3 56 894.2 56.1C895.2 56.1 896.1 55.6 896.5 54.7C897.1 53.5 896.9 52 896 51.1C895.3 50.5 894.4 50.2 893.5 50.5Z" fill="#B9D6C5" stroke="#91B19E" stroke-width="0.4" stroke-miterlimit="100"/>
<path fill-rule="evenodd" clip-rule="evenodd" d="M965.1 53.7C958.9 53.7 953.6 48.3 953.6 41.1L962.9 31.1C970.8 30.6 976.2 36.4 976.2 42.5C976.2 43.5 976.1 44.4666 975.9 45.4H960C961 47.1 962.8 48.3 965 48.3H973.3V53.7H965.1ZM960.1 39.7H970.2C969.2 37.9 967.3 36.7 965.1 36.7C962.9 36.7 961 37.9 960.1 39.7Z" fill="#B9D6C5"/>
<path fill-rule="evenodd" clip-rule="evenodd" d="M936.6 33.4001C937.6 32.6001 939.8 31.7001 942.2 31.7001C948.3 31.7001 953.3 36.7001 953.3 42.9001C953.3 49.1001 948.3 54.1 942.2 54.1C936 54.1 931 49.1001 931 42.9001V26.8H936.6V33.4001ZM947.9 42.9001C947.9 39.7001 945.3 37.1 942.2 37.1C939 37.1 936.4 39.7001 936.4 42.9001C936.4 46.1001 939 48.6 942.2 48.6C945.3 48.6 947.9 46.1001 947.9 42.9001Z" fill="#B9D6C5"/>
<path fill-rule="evenodd" clip-rule="evenodd" d="M1057.9 26.8V46.2001L1048.6 54.1C1040.2 54.1 1035.6 49.1001 1035.6 42.9001C1035.6 36.7001 1040.6 31.7001 1046.8 31.7001C1049.1 31.7001 1051.3 32.6001 1052.3 33.4001V26.8H1057.9ZM1052.5 42.9001C1052.5 39.7001 1050 37.1 1046.8 37.1C1043.6 37.1 1041 39.7001 1041 42.9001C1041 46.1001 1043.6 48.7001 1046.8 48.7001C1050 48.7001 1052.5 46.1001 1052.5 42.9001Z" fill="#B9D6C5"/>
<path fill-rule="evenodd" clip-rule="evenodd" d="M985 58.7H979.4L979.3 43V42.5C979.3 36.4 984.3 31.4 990.5 31.4C996.7 31.4 1001.7 36.4 1001.7 42.5C1001.7 48.7 996.7 53.7 990.5 53.7C988.2 53.7 986 52.8 985 52V58.7ZM996.2 42.6C996.2 39.4 993.7 36.8 990.5 36.8C987.3 36.8 984.7 39.4 984.7 42.6C984.7 45.8 987.3 48.4 990.5 48.4C993.7 48.4 996.2 45.8 996.2 42.6Z" fill="#B9D6C5"/>
<path fill-rule="evenodd" clip-rule="evenodd" d="M1019 48.4001L1013.4 54C1007.2 54 1002.1 48.9001 1002.1 42.7001C1002.1 36.4001 1007.2 31.3 1013.4 31.3C1019.7 31.3 1024.7 36.4001 1024.7 42.7001V53.7001H1019V48.4001ZM1019.3 42.8C1019.3 39.5 1016.7 36.9001 1013.4 36.9001C1010.2 36.9001 1007.6 39.5 1007.6 42.8C1007.6 46 1010.2 48.6 1013.4 48.6C1016.7 48.6 1019.3 46 1019.3 42.8Z" fill="#B9D6C5"/>
<path d="M1027.4 36.9H1033V53.7H1027.4V36.9Z" fill="#B9D6C5"/>
<path d="M1027.4 26.8H1033V32.3H1027.4V26.8Z" fill="#C1C2C4"/>
<path fill-rule="evenodd" clip-rule="evenodd" d="M458.7 75.6C458.7 78.3 456.7 80.3 453.9 80.3C451.2 80.3 449 78.5 449 75.1V73.4C449 70.1 450.6 67.7 453.6 67.2L457.9 66.6V68.4L454 68.8C452.2 69.2 451.1 70.4 451 72.7C451.7 71.4 453 71 454.2 71C456.8 71 458.7 72.9 458.7 75.6ZM456.7 75.6C456.7 73.9 455.5 72.7 453.9 72.7C452.2 72.7 451 73.9 451 75.6C451 77.2 452.2 78.4 453.9 78.4C455.5 78.4 456.7 77.2 456.7 75.6Z" fill="#91B19E"/>
<path fill-rule="evenodd" clip-rule="evenodd" d="M462 76.1C462.1 77.6 463.3 78.6 464.8 78.6C465.9 78.6 466.7 78.1 467.1 77.5H469.1C468.5 79.1 466.9 80.3 464.8 80.3C462 80.3 459.9 78.4 459.9 75.5C459.9 72.7 461.9 70.6 464.6 70.6C467.2 70.6 469.1 72.3 469.4 75.3C469.4 75.5666 469.4 75.8333 469.4 76.1H462ZM467.3 74.6C467.3 73.2 466.2 72.3 464.7 72.3C463.2 72.3 462.1 73.2 462 74.6H467.3Z" fill="#91B19E"/>
<path d="M470.1 78.2999C470.8 78.2999 471.6 77.8999 471.6 76.3999V70.7999H478.9V80.0999H476.8V72.5999H473.5V76.3999C473.5 78.9999 472 80.1999 470.1 80.0999V78.2999Z" fill="#91B19E"/>
<path d="M484.4 75.0999L488.8 70.7999H486.5L484 73.1999L482.6 74.4999V70.7999H480.7H480.6V80.0999H480.7H482.6V75.6999L484 77.2999L486.5 80.0999H488.9L484.4 75.0999Z" fill="#91B19E"/>
<path fill-rule="evenodd" clip-rule="evenodd" d="M498.8 70.8V80.1H496.7V78.7C495.9 79.7 494.5 80.3 493.3 80.3C493.3 80.3 493.267 80.3 493.2 80.3C491.8 80.3 490.7 79.8 490 79C489.933 78.9333 489.9 78.9 489.9 78.9C489.833 78.8333 489.8 78.8 489.8 78.8C489 77.8666 488.6 76.7666 488.6 75.5C488.6 75.5 488.6 75.4666 488.6 75.4C488.6 74.1 489 72.9 489.8 72.1C489.8 72.0333 489.833 72 489.9 72C489.9 72 489.933 71.9666 490 71.9C490.7 71.1 491.8 70.6 493.2 70.6C493.267 70.6 493.3 70.6 493.3 70.6C494.5 70.6 495.9 71.2 496.7 72.2L496.9 70.8H498.8ZM496.8 75.4C496.8 73.8 495.5 72.5 493.8 72.5C492 72.5 490.8 73.7 490.8 75.4C490.8 77.2 492 78.4 493.8 78.4C495.5 78.4 496.8 77.1 496.8 75.4Z" fill="#91B19E"/>
<path fill-rule="evenodd" clip-rule="evenodd" d="M502.3 70.8L502.6 72.2C503.4 71.2 504.7 70.6 506 70.6C506.067 70.6 506.1 70.6 506.1 70.6C507.4 70.6 508.5 71.1 509.3 71.9C509.367 71.9666 509.4 72 509.4 72C509.4 72 509.433 72.0333 509.5 72.1C510.2 72.9 510.7 74.1 510.7 75.4C510.7 75.4666 510.7 75.5 510.7 75.5C510.7 76.8 510.2 77.9 509.5 78.8C509.433 78.8 509.4 78.8333 509.4 78.9C509.4 78.9 509.367 78.9333 509.3 79C508.5 79.8 507.4 80.3 506.1 80.3C506.1 80.3 506.067 80.3 506 80.3C504.7 80.3 503.4 79.7 502.6 78.7V84.3H500.5V70.8H502.3ZM505.5 78.4C507.3 78.4 508.6 77.2 508.6 75.4C508.6 73.7 507.3 72.5 505.5 72.5C503.8 72.5 502.6 73.8 502.6 75.4C502.6 77.1 503.8 78.4 505.5 78.4Z" fill="#91B19E"/>
<path d="M526 74.3V80.1H524V74.8C524 73.1 523.1 72.4 521.9 72.4C520.8 72.4 519.9 73.2 519.9 74.8V80.1H517.8V74.8C517.8 73.1 516.9 72.4 515.8 72.4C514.6 72.4 513.7 73.2 513.7 74.8V80.1H511.7V70.8H513.5L513.7 72.1C514.2 71.2 515.1 70.6 516.5 70.6C517.8 70.6 518.8 71.1 519.3 72.1C520 71.2 521 70.6 522.5 70.6C524.6 70.6 526 72 526 74.3Z" fill="#91B19E"/>
<path d="M484.3 47L474.6 56.6C473.9 57.2 473.9 58 474.2 58.6C474.4 59.1 475 59.7 475.9 59.7L493 59.8C494.3 59.8 495.4 58.7 495.4 57.4C495.4 57.3334 495.4 57.2667 495.4 57.2C495.5 53.5 494 49.8 491.3 47.1C489.4 45.1 486.3 45.1 484.3 47Z" fill="#B9D6C5"/>
<path d="M473.1 39.8L459.5 39.6C458.6 39.6 458 40.2 457.8 40.8C457.6 41.3 457.5 42.1 458.2 42.8L470.3 54.9C471.2 55.9 472.7 55.9 473.7 55C473.7 54.9333 473.733 54.8666 473.8 54.8C476.5 52.2 478 48.5 478.1 44.8C478.1 42 475.9 39.8 473.1 39.8Z" fill="#B9D6C5"/>
<path d="M460 37.8C460.067 37.8 460.133 37.8 460.2 37.8C463.9 37.9 467.6 36.4 470.3 33.7C472.3 31.8 472.3 28.7 470.4 26.7L460.8 17C460.2 16.3 459.4 16.3 458.8 16.6C458.3 16.8 457.7 17.4 457.7 18.3L457.6 35.4C457.6 36.7 458.7 37.8 460 37.8Z" fill="#B9D6C5"/>
<path d="M462.6 16.2001C465.2 18.9001 468.9 20.4001 472.6 20.5001C475.4 20.5001 477.6 18.3001 477.6 15.5001L477.8 1.90006C477.8 1.00006 477.2 0.40006 476.6 0.20006C476.1 5.96642e-05 475.3 -0.0999398 474.6 0.60006L462.5 12.7001C461.5 13.6001 461.5 15.1001 462.4 16.1001C462.467 16.1001 462.533 16.1334 462.6 16.2001Z" fill="#B9D6C5"/>
<path d="M490.7 12.8L500.4 3.2C501.1 2.6 501.1 1.8 500.8 1.2C500.6 0.7 500 0.1 499.1 0.1L482 0C480.7 0 479.6 1.1 479.6 2.4C479.6 2.46667 479.6 2.53333 479.6 2.6C479.5 6.3 481 10 483.7 12.7C485.6 14.7 488.7 14.7 490.7 12.8Z" fill="#B9D6C5"/>
<path d="M501.9 20L515.5 20.2C516.4 20.2 517 19.6 517.2 19C517.4 18.5 517.5 17.7 516.8 17L504.7 4.89996C503.8 3.89996 502.3 3.89996 501.3 4.79996C501.3 4.86662 501.267 4.93329 501.2 4.99996C498.5 7.59996 497 11.3 496.9 15C496.9 17.8 499.1 20 501.9 20Z" fill="#B9D6C5"/>
<path d="M515 22.0001C514.933 22.0001 514.867 22.0001 514.8 22.0001C511.1 21.9001 507.4 23.4001 504.7 26.1001C502.7 28.0001 502.7 31.1001 504.6 33.1001L514.2 42.8001C514.8 43.5001 515.6 43.5001 516.2 43.2001C516.7 43.0001 517.3 42.4001 517.3 41.5001L517.4 24.4001C517.4 23.1001 516.3 22.0001 515 22.0001Z" fill="#B9D6C5"/>
<path d="M512.4 43.6C509.8 40.9 506.1 39.4 502.4 39.3C499.6 39.3 497.4 41.5 497.4 44.3L497.2 57.9001C497.2 58.8001 497.8 59.4 498.4 59.6C498.9 59.8 499.7 59.9 500.4 59.2L512.5 47.1C513.5 46.2 513.5 44.7001 512.6 43.7001C512.533 43.7001 512.467 43.6667 512.4 43.6Z" fill="#B9D6C5"/>
<path d="M572.6 54.2C571.1 52.6 568.6 52.6 567.1 54.1L559.4 61.7C558.9 62.2 558.9 62.8 559.1 63.3C559.3 63.7 559.7 64.2 560.4 64.2H573.9C575 64.2 575.9 63.4 575.9 62.3C575.9 62.2333 575.9 62.2 575.9 62.2C575.9 59.2 574.7 56.3 572.6 54.2Z" fill="#91B19E"/>
<path d="M562.1 52.3C562.2 50.2 560.4 48.4001 558.3 48.4001L547.5 48.3C546.8 48.3 546.3 48.7001 546.2 49.2001C546 49.6001 546 50.3 546.5 50.8L556 60.3001C556.7 61.1001 557.9 61.1001 558.7 60.4001C558.7 60.3334 558.733 60.3001 558.8 60.3001C560.9 58.2001 562.1 55.3 562.1 52.3Z" fill="#91B19E"/>
<path d="M556 43.6C557.6 42.1 557.6 39.6 556.1 38.1L548.6 30.4001C548 29.9001 547.4 29.9 547 30.1C546.5 30.3 546.1 30.7001 546 31.4001V45C546 46 546.8 46.9001 547.9 46.9001C547.967 46.9001 548 46.9001 548 46.9001C551 46.9001 553.9 45.7 556 43.6Z" fill="#91B19E"/>
<path d="M566.6 27C568.1 28.6 570.6 28.6 572.1 27.1L579.8 19.6C580.3 19 580.3 18.4 580.1 18C579.9 17.5 579.5 17.1 578.8 17H565.3C564.2 17 563.3 17.8 563.3 18.9C563.3 18.9667 563.3 19 563.3 19C563.3 22 564.5 24.9 566.6 27Z" fill="#91B19E"/>
<path d="M577.1 28.9C577 31 578.8 32.8 580.9 32.8L591.7 32.9C592.4 32.9 592.9 32.5 593 32C593.2 31.6 593.2 31 592.7 30.5L583.2 20.8C582.5 20.1 581.3 20.1 580.5 20.8C580.5 20.8667 580.467 20.9 580.4 20.9C578.3 23 577.1 25.9 577.1 28.9Z" fill="#91B19E"/>
<path d="M583.2 37.6C581.6 39.1 581.6 41.6 583.1 43.1L590.7 50.8C591.2 51.3 591.8 51.3 592.3 51.1C592.7 51 593.2 50.5 593.2 49.8V36.3C593.2 35.2 592.4 34.4 591.3 34.3C591.233 34.3 591.2 34.3 591.2 34.3C588.2 34.3 585.3 35.5 583.2 37.6Z" fill="#91B19E"/>
<path d="M581.3 48.1C579.2 48 577.4 49.8 577.4 51.9L577.3 62.7C577.3 63.4 577.7 63.9 578.2 64C578.6 64.2 579.3 64.2 579.8 63.7L589.3 54.2C590.1 53.5 590.1 52.3 589.4 51.5C589.333 51.5 589.3 51.4667 589.3 51.4C587.2 49.3 584.3 48.1 581.3 48.1Z" fill="#91B19E"/>
<path fill-rule="evenodd" clip-rule="evenodd" d="M562.6 26.7001V28.7001C562.6 30.4001 561.2 31.8 559.5 31.8H558.4C558.2 31.8 558.1 31.7 558 31.5L557.6 28.4001C557.6 28.2667 557.633 28.2001 557.7 28.2001C558 27.9001 558.3 27.5 558.3 27C558.3 26.2 557.6 25.6001 556.8 25.7001C556.2 25.8001 555.7 26.3001 555.7 26.9001C555.6 27.4001 555.9 27.9001 556.3 28.2001C556.367 28.2001 556.4 28.2667 556.4 28.4001L555.9 31.5C555.9 31.7 555.7 31.8 555.5 31.8H554.5C552.8 31.8 551.4 30.4001 551.4 28.7001V26.7001C551.4 25.4001 552.2 24.2 553.4 23.8V22.9001C553.4 20.9001 555 19.3 557 19.3C559 19.4 560.6 21 560.6 23V23.8C561.7 24.2 562.5 25.3001 562.6 26.7001ZM559.8 23C559.8 21.4 558.6 20.1 557 20.1C555.5 20.1 554.2 21.4001 554.2 22.9001V23.6C554.267 23.6 554.367 23.6 554.5 23.6C554.6 23.6 559.7 23.6 559.8 23.6V23Z" fill="#91B19E"/>
<path fill-rule="evenodd" clip-rule="evenodd" d="M614.3 28.7C614.3 30.9 612.7 32.4 610.5 32.4C608.4 32.4 606.6 31 606.6 28.4V27C606.6 24.5 607.9 22.5999 610.2 22.0999L613.6 21.7V23.0999L610.5 23.5C609.1 23.8 608.3 24.7 608.2 26.5C608.7 25.5 609.8 25.2 610.7 25.2C612.8 25.2 614.3 26.6 614.3 28.7ZM612.7 28.7C612.7 27.4 611.8 26.5 610.5 26.5C609.2 26.5 608.2 27.4 608.2 28.7C608.2 30.1 609.2 31 610.5 31C611.8 31 612.7 30.1 612.7 28.7Z" fill="#91B19E"/>
<path fill-rule="evenodd" clip-rule="evenodd" d="M616.8 29.1999C616.8 29.3999 617.2 29.9999 617.7 30.6999C617.633 30.6333 617.533 30.5666 617.4 30.4999C617.6 30.7999 617.9 31.0999 618.2 31.3999C618.5 31.8999 618.8 32.2999 618.9 32.3999C616.8 32.3999 615.2 30.8999 615.2 28.5999C615.2 26.4999 616.7 24.7999 618.9 24.7999C620.9 24.7999 622.4 26.0999 622.6 28.4999C622.6 28.6999 622.6 28.9333 622.6 29.1999H616.8ZM618.2 31.3999C618.067 31.1999 617.9 30.9666 617.7 30.6999C618.1 30.9999 618.5 31.0999 619 31.0999C619.9 31.0999 620.5 30.6999 620.8 30.1999H622.4C622 31.4999 620.7 32.3999 619 32.3999C619 32.3999 618.6 31.8999 618.2 31.3999ZM617.1 30.1999C617.167 30.3333 617.267 30.4333 617.4 30.4999C617.3 30.2999 617.1 30.1999 617.1 30.1999ZM621 27.8999C621 26.8999 620.1 26.0999 618.9 26.0999C617.8 26.0999 616.9 26.8999 616.8 27.8999H621Z" fill="#91B19E"/>
<path d="M623.2 30.9C623.7 30.9 624.3 30.6 624.3 29.4V25H630V32.3H628.4V26.4H625.9V29.4C625.9 31.5 624.7 32.4 623.1 32.3L623.2 30.9Z" fill="#91B19E"/>
<path d="M634.4 28.4L637.9 25H636L634.1 26.9L633 27.9V25H631.5H631.4V32.3H631.5H633V28.9L634.1 30.1L636 32.3H637.9L634.4 28.4Z" fill="#91B19E"/>
<path fill-rule="evenodd" clip-rule="evenodd" d="M645.7 24.9999V32.2999H644V31.1999C643.4 31.9999 642.3 32.3999 641.4 32.3999C641.4 32.3999 641.367 32.3999 641.3 32.3999C640.2 32.3999 639.4 32.0999 638.8 31.3999C638.733 31.3999 638.7 31.3666 638.7 31.2999C638.633 31.2999 638.6 31.2999 638.6 31.2999C638 30.6333 637.7 29.7333 637.7 28.5999C637.7 27.5999 638 26.6999 638.6 25.9999C638.6 25.9999 638.633 25.9666 638.7 25.8999C638.7 25.8999 638.733 25.8666 638.8 25.7999C639.4 25.1999 640.2 24.7999 641.3 24.7999C641.367 24.7999 641.4 24.7999 641.4 24.7999C642.3 24.7999 643.4 25.2999 644 26.0999L644.2 24.9999H645.7ZM644.1 28.5999C644.1 27.2999 643.1 26.2999 641.8 26.2999C640.4 26.2999 639.4 27.2999 639.4 28.5999C639.4 29.9999 640.4 30.9999 641.8 30.9999C643.1 30.9999 644.1 29.9999 644.1 28.5999Z" fill="#91B19E"/>
<path fill-rule="evenodd" clip-rule="evenodd" d="M648.5 24.9999L648.6 26.0999C649.3 25.2999 650.3 24.7999 651.3 24.7999C651.3 24.7999 651.333 24.7999 651.4 24.7999C652.5 24.7999 653.3 25.1999 653.9 25.7999C653.967 25.8666 654 25.8999 654 25.8999C654 25.9666 654.033 25.9999 654.1 25.9999C654.7 26.6999 655 27.5999 655 28.5999C655 29.7333 654.7 30.6333 654.1 31.2999C654.033 31.2999 654 31.2999 654 31.2999C654 31.3666 653.967 31.3999 653.9 31.3999C653.3 31.9999 652.5 32.3999 651.4 32.3999C651.333 32.3999 651.3 32.3999 651.3 32.3999C650.3 32.3999 649.3 31.9999 648.6 31.1999V35.5999H647V24.9999H648.5ZM651.1 30.9999C652.5 30.9999 653.4 29.9999 653.4 28.5999C653.4 27.2999 652.5 26.2999 651.1 26.2999C649.7 26.2999 648.7 27.2999 648.7 28.5999C648.7 29.9999 649.7 30.9999 651.1 30.9999Z" fill="#91B19E"/>
<path d="M667 27.6999V32.2999H665.4V28.0999C665.4 26.7999 664.7 26.1999 663.8 26.1999C662.9 26.1999 662.2 26.8999 662.2 28.0999V32.2999H660.6V28.0999C660.6 26.7999 659.9 26.1999 659 26.1999C658.1 26.1999 657.4 26.8999 657.4 28.0999V32.2999H655.8V24.9999H657.2L657.4 25.9999C657.8 25.2999 658.5 24.7999 659.6 24.7999C660.6 24.7999 661.4 25.2999 661.8 25.9999C662.3 25.2999 663.1 24.7999 664.3 24.7999C665.9 24.7999 667 25.8999 667 27.6999Z" fill="#91B19E"/>
<path d="M612.2 37.7999H613.5V44.9999H612V40.1999L608.1 44.9999H606.8V37.7999H608.3V42.5999L612.2 37.7999Z" fill="#91B19E"/>
<path d="M619.8 37.7999H621.2V44.9999H619.8V42.3999H616.2V44.9999H614.8V37.7999H616.2V40.8999H619.8V37.7999Z" fill="#91B19E"/>
<path d="M664.2 44.9999V39.0999H661.9V37.7999H668V39.0999H665.7V44.9999H664.2Z" fill="#91B19E"/>
<path fill-rule="evenodd" clip-rule="evenodd" d="M630.4 41.9C630.5 43 631.4 43.7999 632.6 43.7999C633.4 43.7999 634 43.5 634.3 43H635.9C635.4 44.2 634.1 45.0999 632.5 45.0999C630.4 45.0999 628.8 43.6 628.8 41.4C628.8 39.3 630.3 37.7 632.4 37.7C634.4 37.7 635.9 38.9999 636.1 41.2999C636.1 41.4999 636.1 41.7 636.1 41.9H630.4ZM634.5 40.7C634.4 39.7 633.6 39 632.4 39C631.3 39 630.4 39.7 630.4 40.7H634.5Z" fill="#91B19E"/>
<path fill-rule="evenodd" clip-rule="evenodd" d="M655.7 41.9C655.8 43 656.7 43.7999 657.9 43.7999C658.7 43.7999 659.3 43.5 659.7 43H661.2C660.8 44.2 659.5 45.0999 657.9 45.0999C655.7 45.0999 654.1 43.6 654.1 41.4C654.1 39.3 655.7 37.7 657.8 37.7C659.8 37.7 661.2 38.9999 661.4 41.2999C661.4 41.4999 661.4 41.7 661.4 41.9H655.7ZM659.8 40.7C659.8 39.7 659 39 657.8 39C656.7 39 655.8 39.7 655.7 40.7H659.8Z" fill="#91B19E"/>
<path d="M651.5 37.7999H652.9V44.9999H651.5V42.3999H647.9V44.9999H646.5V37.7999H647.9V40.8999H651.5V37.7999Z" fill="#91B19E"/>
<path d="M624.6 44.9999V39.0999H622.3V37.7999H628.4V39.0999H626.2V44.9999H624.6Z" fill="#91B19E"/>
<path fill-rule="evenodd" clip-rule="evenodd" d="M638.8 37.7L639 38.8C639.6 38 640.7 37.6 641.6 37.6C641.6 37.6 641.633 37.6 641.7 37.6C642.8 37.6 643.6 38 644.2 38.6C644.2 38.6 644.233 38.6333 644.3 38.7C644.9 39.4 645.2 40.3 645.2 41.3C645.2 42.4 644.9 43.3 644.3 43.9C644.3 43.9 644.3 43.9333 644.3 44C644.233 44 644.2 44.0333 644.2 44.1C643.6 44.7 642.7 45 641.7 45C641.633 45 641.6 45 641.6 45C640.7 45 639.6 44.6 639 43.8V48.1H637.4V37.7H638.8ZM641.3 43.6C642.7 43.6 643.6 42.7 643.6 41.3C643.6 40 642.7 39 641.3 39C640 39 639 40 639 41.3C639 42.6 640 43.6 641.3 43.6Z" fill="#91B19E"/>
<path d="M613.4 50.6V57.8H611.8V51.9H608.5V57.8H606.8V50.6H613.4Z" fill="#91B19E"/>
<path fill-rule="evenodd" clip-rule="evenodd" d="M652.4 52.9C654.1 52.9 655.2 53.8 655.2 55.3C655.2 56.9 654.1 57.8 652.4 57.8H649.5V50.6H650.9V52.9H652.4ZM652.2 56.4C653.1 56.4 653.8 56.1 653.8 55.3C653.8 54.6 653.1 54.2 652.2 54.2H650.8V56.4H652.2Z" fill="#91B19E"/>
<path fill-rule="evenodd" clip-rule="evenodd" d="M621 50.7H622.4V57.8H620.8V56.7C620.2 57.5 619.2 57.9 618.2 57.9C618.133 57.9 618.1 57.9 618.1 57.9C617.1 57.9 616.2 57.5 615.7 56.9C615.633 56.9 615.6 56.9 615.6 56.9C615.533 56.8333 615.5 56.8 615.5 56.8C614.9 56.1 614.6 55.3 614.6 54.2C614.6 53.2 614.9 52.3 615.5 51.6C615.5 51.6 615.533 51.6 615.6 51.6C615.6 51.6 615.633 51.5667 615.7 51.5C616.3 50.9 617.1 50.5 618.1 50.5C618.1 50.5 618.133 50.5 618.2 50.5C619.2 50.5 620.2 51 620.8 51.7L621 50.7ZM620.8 54.2C620.8 52.9 619.9 52 618.5 52C617.2 52 616.2 52.9 616.2 54.2C616.2 55.6 617.2 56.5 618.5 56.5C619.8 56.5 620.8 55.5 620.8 54.2Z" fill="#91B19E"/>
<path fill-rule="evenodd" clip-rule="evenodd" d="M625.4 50.6L625.6 51.6C626.2 50.9 627.3 50.4 628.2 50.4C628.267 50.4 628.3 50.4 628.3 50.4C629.3 50.4 630.2 50.8 630.8 51.4C630.8 51.4 630.8 51.4334 630.8 51.5C630.867 51.5 630.9 51.5334 630.9 51.6C631.5 52.2 631.8 53.1 631.8 54.1V54.2C631.8 55.2 631.5 56.1 630.9 56.7C630.9 56.7667 630.867 56.8 630.8 56.8C630.8 56.8 630.8 56.8334 630.8 56.9C630.2 57.5 629.3 57.9 628.3 57.9C628.3 57.9 628.267 57.9 628.2 57.9C627.3 57.9 626.2 57.4 625.6 56.7V60.9H624V50.6H625.4ZM627.9 56.4C629.2 56.4 630.2 55.5 630.2 54.1C630.2 52.8 629.2 51.9 627.9 51.9C626.5 51.9 625.6 52.8 625.6 54.1C625.6 55.4 626.6 56.4 627.9 56.4Z" fill="#91B19E"/>
<path d="M641.3 56.5C641.8 56.4 642.4 56.1 642.4 55V50.6H648.1V57.9H646.5V52H643.9V55C643.9 57 642.8 57.9 641.2 57.9L641.3 56.5Z" fill="#91B19E"/>
<path fill-rule="evenodd" clip-rule="evenodd" d="M640.4 54.2C640.4 56.4 638.8 57.9 636.6 57.9C634.4 57.9 632.8 56.3 632.8 54.2C632.8 52.1 634.4 50.5 636.6 50.5C638.8 50.5 640.4 52.1 640.4 54.2ZM638.8 54.2C638.8 52.9 637.9 51.9 636.6 51.9C635.3 51.9 634.3 52.9 634.3 54.2C634.3 55.5 635.3 56.5 636.6 56.5C637.9 56.5 638.8 55.5 638.8 54.2Z" fill="#91B19E"/>
<path fill-rule="evenodd" clip-rule="evenodd" d="M1379.4 40.8V48.9H1376.8V29H1383.6C1385.33 29 1386.8 29.5667 1388 30.7C1389.2 31.8333 1389.8 33.2333 1389.8 34.9C1389.8 36.5667 1389.2 37.9667 1388 39.1C1386.8 40.2333 1385.33 40.8 1383.6 40.8H1379.4ZM1379.4 31.4V38.4H1383.7C1384.7 38.4 1385.53 38.0333 1386.2 37.3C1386.87 36.6333 1387.2 35.8333 1387.2 34.9C1387.2 33.9667 1386.87 33.1667 1386.2 32.5C1385.53 31.7667 1384.7 31.4 1383.7 31.4H1379.4ZM1395.8 34.8C1397.67 34.8 1399.17 35.3 1400.3 36.3C1401.37 37.3 1401.9 38.7 1401.9 40.5V48.9H1399.4V47H1399.3C1398.23 48.5333 1396.83 49.3 1395.1 49.3C1393.57 49.3 1392.3 48.8667 1391.3 48C1390.3 47.1333 1389.8 46.0333 1389.8 44.7C1389.8 43.2333 1390.33 42.1 1391.4 41.3C1392.47 40.4333 1393.9 40 1395.7 40C1397.23 40 1398.47 40.3 1399.4 40.9V40.3C1399.4 39.4333 1399.07 38.6667 1398.4 38C1397.7 37.4 1396.8 37.1 1395.9 37.1C1394.5 37.1 1393.37 37.7 1392.5 38.9L1390.2 37.5C1391.47 35.7 1393.33 34.8 1395.8 34.8ZM1392.4 44.7C1392.4 45.3667 1392.7 45.9333 1393.3 46.4C1393.83 46.8667 1394.5 47.1 1395.3 47.1C1396.37 47.1 1397.33 46.7 1398.2 45.9C1399 45.1 1399.4 44.1333 1399.4 43C1398.6 42.4 1397.5 42.1 1396.1 42.1C1395.03 42.1 1394.17 42.3667 1393.5 42.9C1392.77 43.3667 1392.4 43.9667 1392.4 44.7ZM1416 35.3L1407.4 54.9H1404.8L1407.9 48L1402.3 35.3H1405.1L1409.2 45.1L1413.2 35.3H1416Z" fill="#B9D6C5"/>
<path d="M1365.6 47.5H1361.9V44.6C1363.1 43.8 1363.9 42.6001 1364.2 41.2001H1358V36.8H1368.8C1368.93 37.5334 1369 38.3 1369 39.1C1369 42.6 1367.7 45.5 1365.6 47.5Z" fill="#B9D6C5"/>
<path d="M1347.7 44V41H1351.5C1352.4 43.7 1355 45.7 1358 45.7C1359.5 45.7 1360.9 45.3 1361.9 44.6L1365.6 47.5C1363.7 49.3 1361.1 50.3 1358 50.3C1353.6 50.3 1349.7 47.8 1347.7 44Z" fill="#B9D6C5"/>
<path d="M1347.7 44C1347 42.4 1346.5 40.6999 1346.5 38.7999C1346.5 36.9999 1346.9 35.3 1347.7 33.7H1351.5V36.5999C1351.1 38.0999 1351.1 39.6 1351.5 41L1347.7 44Z" fill="#B9D6C5"/>
<path d="M1351.5 36.6L1347.7 33.7C1349.7 29.8 1353.6 27.4 1358 27.4C1361.1 27.4 1363.7 28.5 1365.6 30.4L1362.4 33.6C1361.2 32.5 1359.7 31.9 1358 31.9C1355 31.9 1352.4 33.9 1351.5 36.6Z" fill="#B9D6C5"/>
<path fill-rule="evenodd" clip-rule="evenodd" d="M1356.6 14.4H1407.1C1421.1 14.4 1432.4 25.8 1432.4 39.7C1432.4 53.7 1421.1 65 1407.1 65H1356.6C1342.7 65 1331.3 53.7 1331.3 39.7C1331.3 25.8 1342.7 14.4 1356.6 14.4Z" stroke="#B9D6C5" stroke-width="1.2"/>
<path fill-rule="evenodd" clip-rule="evenodd" d="M1152.6 45.2999H1156L1147.6 65.8999H1144.3L1147.3 58.6999L1141.5 45.2999H1145L1148.9 54.7999L1152.6 45.2999Z" fill="#B9D6C5"/>
<path fill-rule="evenodd" clip-rule="evenodd" d="M1132.4 45C1134.3 45 1135.9 45.8 1136.9 47V45.3H1140.2V59.4H1136.9V57.6C1135.9 58.9 1134.2 59.7 1132.4 59.7C1129 59.7 1125.4 57 1125.4 52.4C1125.4 47.7 1128.9 45 1132.4 45ZM1132.9 48C1130.5 48 1128.6 49.9 1128.6 52.3C1128.6 54.8 1130.5 56.7 1132.9 56.7C1135.3 56.7 1137.1 54.8 1137.1 52.3C1137.1 49.9 1135.3 48 1132.9 48Z" fill="#B9D6C5"/>
<path fill-rule="evenodd" clip-rule="evenodd" d="M1118.2 41.7999C1121.9 41.7999 1124.6 44.5999 1124.6 48.0999C1124.6 51.5999 1121.9 54.3999 1118.2 54.3999H1115.5V59.3999H1112.2V41.7999H1118.2ZM1118 44.7999H1115.5V51.2999H1118C1119.9 51.2999 1121.2 49.8999 1121.2 48.0999C1121.2 46.2999 1119.9 44.7999 1118 44.7999Z" fill="#B9D6C5"/>
<path fill-rule="evenodd" clip-rule="evenodd" d="M1191.6 21.8999V26.3999C1191.6 26.6999 1191.5 26.8999 1191.5 27.3999C1191.2 30.3999 1188.6 31.4999 1185.7 31.4999C1182.8 31.4999 1180.2 30.3999 1179.9 27.3999C1179.9 26.8999 1179.9 26.6999 1179.9 26.3999V19.3999C1179.9 19.0999 1179.9 18.5999 1179.9 18.3999C1180.3 15.2999 1182.8 14.2999 1185.7 14.2999C1188.6 14.2999 1191.2 15.2999 1191.5 18.3999C1191.5 18.8999 1191.5 19.3999 1191.5 19.3999V19.9999H1187.4V19.0999C1187.4 19.0999 1187.4 18.6999 1187.3 18.3999C1187.3 18.0999 1186.9 17.1999 1185.7 17.1999C1184.5 17.1999 1184.1 17.9999 1184.1 18.3999C1184 18.5999 1184 18.8999 1184 19.1999V26.6999C1184 26.8999 1184 27.1999 1184 27.3999C1184.1 27.7999 1184.5 28.5999 1185.7 28.5999C1186.9 28.5999 1187.3 27.7999 1187.4 27.3999C1187.4 27.1999 1187.4 26.9666 1187.4 26.6999V24.2999H1185.7V21.8999H1191.6Z" fill="#B9D6C5"/>
<path fill-rule="evenodd" clip-rule="evenodd" d="M1171.5 14.7H1175.6V31H1169.7L1165.7 17.7H1165.6L1165.8 31H1161.8V14.7H1167.9L1171.6 27.5999H1171.7L1171.5 14.7Z" fill="#B9D6C5"/>
<path fill-rule="evenodd" clip-rule="evenodd" d="M1157.2 26.5C1157.2 26.8 1157.1 27.3999 1157.1 27.5999C1156.8 30.6999 1154.4 31.7 1151.4 31.7C1148.4 31.7 1146 30.6999 1145.7 27.5999C1145.6 27.3999 1145.6 26.8 1145.6 26.5V14.7H1149.8V26.9C1149.8 27.1 1149.8 27.4 1149.8 27.5C1149.9 27.9 1150.3 28.7 1151.4 28.7C1152.5 28.7 1152.9 27.9 1153 27.5C1153 27.4 1153 27.1 1153 26.9V14.7H1157.2V26.5Z" fill="#B9D6C5"/>
<path fill-rule="evenodd" clip-rule="evenodd" d="M1141.7 25.3999C1141.8 25.6999 1141.9 26.5999 1141.7 27.9999C1141.3 30.6999 1138.9 31.6999 1135.9 31.6999C1132.9 31.6999 1130 30.5999 1130 26.9999V25.7999H1134.4V27.2999C1134.4 28.1999 1135 28.7999 1136 28.7999C1137.1 28.7999 1137.5 28.2999 1137.6 27.6999C1137.7 27.3999 1137.8 26.8999 1137.6 26.4999C1136.8 24.3999 1131 23.3999 1130.3 20.0999C1130.1 19.2999 1130.1 18.5999 1130.2 17.8999C1130.7 15.2999 1133 14.2999 1135.9 14.2999C1138.2 14.2999 1141.4 14.8999 1141.4 18.3999V19.4999H1137.3V18.4999C1137.3 17.6999 1136.8 17.0999 1135.8 17.0999C1134.8 17.0999 1134.5 17.5999 1134.3 18.1999C1134.3 18.2999 1134.3 18.6999 1134.4 18.9999C1134.8 20.8999 1141 21.8999 1141.7 25.3999Z" fill="#B9D6C5"/>
<path fill-rule="evenodd" clip-rule="evenodd" d="M1125.7 14.7L1126 31.2H1121.9L1121.8 16.4H1121.7L1119 31.2H1114.8L1112 16.4H1111.9L1111.8 31.2H1107.7L1108.1 14.7H1114.8L1116.8 27.2999H1116.9L1118.9 14.7H1125.7Z" fill="#B9D6C5"/>
<path fill-rule="evenodd" clip-rule="evenodd" d="M1095.5 31.2H1091L1094.1 14.7H1101.4L1104.4 31.2H1100L1097.8 16.2999H1097.7L1095.5 31.2Z" fill="#B9D6C5"/>
<path fill-rule="evenodd" clip-rule="evenodd" d="M1076.5 27.0999V25.7999H1080.9V27.4C1080.9 28.3 1081.5 28.9 1082.6 28.9C1083.7 28.9 1084 28.2999 1084.2 27.7999C1084.2 27.4999 1084.3 26.9 1084.1 26.5C1083.3 24.4 1077.4 23.4 1076.7 20.1C1076.6 19.2 1076.6 18.6 1076.7 17.9C1077.1 15.1999 1079.5 14.2 1082.4 14.2C1084.8 14.2 1088 14.8 1088 18.4V19.5H1083.9V18.5C1083.9 17.6 1083.3 17 1082.4 17C1081.3 17 1081 17.6 1080.8 18.1C1080.8 18.3 1080.8 18.6 1080.9 19C1081.3 20.9 1087.6 21.9 1088.3 25.4C1088.3 25.7 1088.5 26.5999 1088.3 28.0999C1087.9 30.7999 1085.4 31.7999 1082.5 31.7999C1079.4 31.7999 1076.5 30.6999 1076.5 27.0999Z" fill="#B9D6C5"/>
<path fill-rule="evenodd" clip-rule="evenodd" d="M689.4 24.9C690.4 24.9 693.4 24.7 694.6 28.9C695.467 31.7667 696.833 36.5 698.7 43.1H699.5C701.5 36.1667 702.867 31.4333 703.6 28.9C704.9 24.6 708 24.9 709.3 24.9H719.2V55.6H709.1V37.5H708.5L702.9 55.6H695.3L689.7 37.5H689.1V55.6H679V24.9H689.4ZM733.6 24.9V43H734.4L741.2 28.2C742.5 25.2 745.3 24.9 745.3 24.9H755V55.6H744.8V37.5H744L737.3 52.4C736 55.3 733.1 55.6 733.1 55.6H723.3V24.9H733.6ZM790.5 39.5C789.1 43.6 784.6 46.5 779.6 46.5H768.9V55.6H759.1V39.5H790.5Z" fill="#B9D6C5"/>
<path fill-rule="evenodd" clip-rule="evenodd" d="M791.1 37.6H771C764.9 37.6 759 31.8 758.5 24.9H780C788.3 24.9 792.2 31.9 791.1 37.6Z" fill="#B9D6C5"/>
<path d="M45.6 21.2L29.9 58.6999H19.7L12 28.7999C11.9 28.0999 11.7 27.3999 11.3 26.7999C10.9 26.1999 10.3 25.8 9.70001 25.5C6.70001 24 3.50001 22.9999 0.200012 22.2999L0.400012 21.2H16.9C18 21.2 19 21.5999 19.8 22.2999C20.6 22.9999 21.2 24 21.3 25L25.4 46.7L35.5 21.2H45.6Z" fill="#B9D6C5"/>
<path d="M59.5 21.2L51.5 58.5999H41.8L49.8 21.2H59.5Z" fill="#B9D6C5"/>
<path d="M72.2 31.6C72.1 36.1 85.7 36.6 85.7 46.5C85.7 54.2 79.1 59.3 68.9 59.3C65.2 59.3 61.5 58.6 58.1 57.3L59.9 49.1C62.9 50.7 66.3 51.5 69.8 51.4C72.6 51.4 75.6 50.3 75.6 47.8C75.7 46.1 74.2 44.9 70.6 43.1C66.9 41.3 62.1 38.3 62.1 32.9C62.2 25.6 68.9 20.5 78.5 20.5C81.6 20.5 84.6 21.1 87.5 22.2L85.8 30.1C82.8 28.7 79.5 28.1 76.3 28.4C73.4 28.8 72.2 30.2 72.2 31.6Z" fill="#B9D6C5"/>
<path fill-rule="evenodd" clip-rule="evenodd" d="M112.1 21.2L120 58.6999H111.1L109.9 53.0999H97.5L95.5 58.6999H85.3L99.7 23.9C100.1 23.1 100.6 22.4 101.4 21.9C102.1 21.5 103 21.2 103.9 21.2H112.1ZM108.2 45.4L105.3 31.2999L100.2 45.4H108.2Z" fill="#B9D6C5"/>
<path fill-rule="evenodd" clip-rule="evenodd" d="M132.9 35.3H201.5V69.6H132.9V35.3Z" fill="#B9D6C5"/>
<path fill-rule="evenodd" clip-rule="evenodd" d="M165.7 10.6L162.4 26H158.4L161.7 10.6H165.7ZM186.4 23.7001H181.3L180.5 26H176.3L182.3 11.7001C182.6 11.1001 183.2 10.6 184 10.6H187.4L190.6 26H186.9L186.4 23.7001ZM185.8 20.6L184.5 14.8L182.4 20.6H185.8ZM169.7 26.3C167.9 26.2 166.2 25.9001 165.2 25.4001L166 22.1C166.9 22.5 168 23.1 170 23C171.2 23 172.4 22.6 172.4 21.5C172.4 20.9 171.9 20.4 170.4 19.6C168.8 18.9 166.8 17.6 166.9 15.4C166.9 12.4 169.7 10.3 173.6 10.3C175.1 10.3 176.4 10.7 177.3 11L176.6 14.3C174.8 13.5 173.3 13.5 172.7 13.6C171.5 13.7 171 14.3 171 14.9C171 16.7 176.6 16.9 176.6 21C176.6 24.2 173.8 26.3 169.7 26.3ZM160.1 10.6L153.6 26H149.4L146.3 13.7001C146.1 13.0001 145.9 12.7 145.3 12.4C144.3 11.8 142.8 11.4 141.4 11.1L141.5 10.6H148.2C149.1 10.6 149.9 11.2001 150.1 12.2001L151.8 21.1L155.9 10.6H160.1Z" fill="#B9D6C5"/>
<path fill-rule="evenodd" clip-rule="evenodd" d="M148.9 54.3C149.3 54.6 150 54.8 150.7 54.8C151.6 54.8 152.2 54.4 152.2 53.7C152.2 53.2 151.8 52.8 150.8 52.5C149.5 52 148.7 51.3 148.7 50.2C148.7 48.9 149.7 48 151.4 48C152.3 48 152.9 48.2 153.3 48.3L152.9 49.5C152.7 49.4 152.1 49.1 151.4 49.1C150.5 49.1 150.1 49.6 150.1 50.1C150.1 50.7 150.6 50.9 151.6 51.3C152.9 51.9 153.6 52.5 153.6 53.6C153.6 54.9 152.7 56 150.7 56C149.8 56 149 55.7 148.5 55.5L148.9 54.3Z" fill="#333333"/>
<path fill-rule="evenodd" clip-rule="evenodd" d="M159.1 52.4H156.2V54.7H159.5V55.9H154.8V48.1H159.3V49.2H156.2V51.3H159.1V52.4Z" fill="#333333"/>
<path fill-rule="evenodd" clip-rule="evenodd" d="M166.2 55.6C165.8 55.8 165.1 56 164.1 56C161.7 56 160.2 54.4 160.2 52.1C160.2 49.5 162 48 164.3 48C165.3 48 165.9 48.2 166.2 48.3L165.9 49.4C165.6 49.3 165 49.1 164.4 49.1C162.8 49.1 161.7 50.1 161.7 52C161.7 53.7 162.7 54.8 164.4 54.8C164.9 54.8 165.6 54.7 165.9 54.5L166.2 55.6Z" fill="#333333"/>
<path fill-rule="evenodd" clip-rule="evenodd" d="M168.7 48.1V52.6C168.7 54.1 169.3 54.8 170.3 54.8C171.3 54.8 171.9 54.1 171.9 52.6V48.1H173.3V52.5C173.3 54.9 172.1 56 170.2 56C168.4 56 167.2 55 167.2 52.5V48.1H168.7Z" fill="#333333"/>
<path fill-rule="evenodd" clip-rule="evenodd" d="M174.8 48.2C175.4 48.1 176.2 48 177 48C178.1 48 178.8 48.2 179.4 48.6C179.8 49 180 49.5 180 50.2C180 51.2 179.4 51.9 178.6 52.2C179.2 52.4 179.5 52.9 179.7 53.7C180 54.7 180.2 55.6 180.3 55.9H178.9C178.7 55.6 178.6 55 178.3 54C178.1 53 177.8 52.7 177 52.7H176.2V55.9H174.8V48.2ZM176.2 51.6H177.1C178 51.6 178.6 51.1 178.6 50.3C178.6 49.5 178 49.1 177.1 49.1C176.633 49.1 176.333 49.1 176.2 49.1V51.6Z" fill="#333333"/>
<path fill-rule="evenodd" clip-rule="evenodd" d="M185.6 52.4H182.7V54.7H186V55.9H181.3V48.1H185.8V49.2H182.7V51.3H185.6V52.4Z" fill="#333333"/>
<path d="M281.8 64.0999H255.4V16.7H281.8V64.0999Z" fill="#B9D6C5"/>
<path d="M260.2 53.6C262.2 57.7 265.1 61.2 268.6 64.1C264.2 67.6 258.9 69.7001 253.2 70.3001C247.6 70.9001 241.9 69.9 236.9 67.5C231.8 65 227.5 61.1001 224.5 56.4001C221.5 51.6001 219.9 46 219.9 40.4C219.9 34.8 221.5 29.2001 224.5 24.4001C227.5 19.7001 231.8 15.8 236.9 13.3C241.9 10.9 247.6 9.90005 253.2 10.5C258.9 11.1 264.2 13.2 268.6 16.7C265.1 19.6 262.2 23.1 260.2 27.2C258.2 31.3 257.1 35.8 257.1 40.4C257.1 45 258.2 49.5 260.2 53.6Z" fill="#91B19E"/>
<path d="M317.4 40.4C317.4 46 315.8 51.6001 312.8 56.4001C309.8 61.2001 305.5 65 300.4 67.5C295.3 69.9 289.6 70.9001 284 70.3001C278.4 69.7001 273.1 67.6 268.6 64.1C272.2 61.3 275.1 57.7 277.1 53.6C279.1 49.5 280.1 45 280.1 40.4C280.1 35.8 279.1 31.3 277.1 27.2C275.1 23.1 272.2 19.6 268.6 16.7C273.1 13.2 278.4 11.1 284 10.5C289.6 9.90005 295.3 10.9 300.4 13.3C305.5 15.8 309.8 19.6 312.8 24.4001C315.8 29.2001 317.4 34.8 317.4 40.4Z" fill="#B9D6C5"/>
<path fill-rule="evenodd" clip-rule="evenodd" d="M350.2 70H348.9V55H350.2V70ZM359.7 55C360.833 55 361.967 55.1666 363.1 55.5C364 55.8 364.9 56.3 365.6 57C366.3 57.7 366.9 58.5 367.2 59.4C368 61.4 368 63.6 367.2 65.6C366.9 66.5 366.3 67.3 365.6 68C364.9 68.6 364 69.2 363.1 69.5C361.967 69.8333 360.833 70 359.7 70H354.2V55H359.7ZM355.6 56.2V68.8H359.7C360.7 68.8 361.667 68.6333 362.6 68.3C363.4 68.0333 364.1 67.6333 364.7 67.1C365.3 66.5 365.733 65.8333 366 65.1C366.6 63.4 366.6 61.6 366 59.9C365.7 59.2 365.3 58.5 364.7 57.9C364.1 57.3666 363.4 56.9666 362.6 56.7C361.667 56.3666 360.7 56.2 359.7 56.2H355.6ZM383 54.8C383.667 54.8 384.3 54.8666 384.9 55C385.5 55.1333 386.067 55.3666 386.6 55.7C387.067 55.9 387.533 56.2 388 56.6C388.4 57 388.767 57.4333 389.1 57.9L388 58.6C387.733 58.2 387.433 57.8666 387.1 57.6C386.7 57.2666 386.3 57 385.9 56.8C385.5 56.5333 385.033 56.3666 384.5 56.3C384.033 56.1666 383.533 56.1 383 56.1C382.133 56.1 381.3 56.2666 380.5 56.6C379.767 56.8666 379.1 57.3 378.5 57.9C377.967 58.4333 377.533 59.1 377.2 59.9C376.6 61.6 376.6 63.4 377.2 65.1C377.533 65.9 377.967 66.5666 378.5 67.1C379.1 67.7 379.767 68.1333 380.5 68.4C381.3 68.7333 382.133 68.9 383 68.9C383.533 68.9 384.033 68.8333 384.5 68.7C384.967 68.6333 385.433 68.4666 385.9 68.2C386.3 68 386.7 67.7333 387.1 67.4C387.433 67.1333 387.733 66.8 388 66.4L389 67.1C388.733 67.5666 388.367 68 387.9 68.4C387.5 68.8 387.033 69.1333 386.5 69.4C385.967 69.6666 385.433 69.8666 384.9 70C383.2 70.3 381.5 70.2 380 69.6C379.1 69.2 378.3 68.7 377.6 68C376.867 67.3333 376.3 66.5333 375.9 65.6C375.2 63.6 375.2 61.4 375.9 59.4C376.3 58.4666 376.867 57.6666 377.6 57C378.3 56.3 379.1 55.8 380 55.4C381 55 382 54.8 383 54.8ZM393.1 61.7C393.3 61.3666 393.533 61.0666 393.8 60.8C394.067 60.5333 394.367 60.3333 394.7 60.2C394.967 60.0666 395.267 59.9666 395.6 59.9C395.933 59.8333 396.3 59.8 396.7 59.8C397.233 59.7333 397.8 59.8 398.4 60C398.867 60.2 399.3 60.4666 399.7 60.8C400.1 61.2 400.4 61.6333 400.6 62.1C400.8 62.6333 400.9 63.2 400.9 63.8V70H399.7V64.2C399.7 63.7333 399.633 63.2666 399.5 62.8C399.367 62.4 399.133 62.0666 398.8 61.8C398.533 61.4666 398.2 61.2333 397.8 61.1C397.333 60.9666 396.867 60.9 396.4 60.9C396 60.9 395.567 61 395.1 61.2C394.7 61.3333 394.367 61.5333 394.1 61.8C393.767 62.1333 393.5 62.5 393.3 62.9C393.167 63.3 393.1 63.7666 393.1 64.3V70H391.9V54.6H393.1V61.7ZM408.1 59.8C408.767 59.8 409.4 59.9 410 60.1C410.533 60.3666 411.033 60.7333 411.5 61.2C411.9 61.6666 412.233 62.2 412.5 62.8C412.7 63.4666 412.8 64.1666 412.8 64.9C412.8 64.9666 412.8 65.0666 412.8 65.2C412.8 65.2666 412.8 65.3333 412.8 65.4H404.4C404.4 65.9333 404.533 66.4666 404.8 67C405 67.4 405.267 67.7666 405.6 68.1C406 68.4333 406.4 68.7 406.8 68.9C407.267 69.0333 407.767 69.1 408.3 69.1C408.967 69.1 409.6 68.9666 410.2 68.7C410.733 68.4333 411.233 68.1 411.7 67.7L412.3 68.5C412.033 68.8333 411.7 69.1 411.3 69.3C411.033 69.5 410.7 69.6666 410.3 69.8C409.967 69.9333 409.633 70.0333 409.3 70.1C408.9 70.1666 408.533 70.2 408.2 70.2C407.533 70.2 406.867 70.0666 406.2 69.8C405.6 69.5333 405.067 69.1666 404.6 68.7C404.133 68.2333 403.767 67.7 403.5 67.1C403.233 66.4333 403.133 65.7333 403.2 65C403.133 64.2666 403.233 63.5666 403.5 62.9C403.767 62.2333 404.133 61.6666 404.6 61.2C405.067 60.7333 405.6 60.3666 406.2 60.1C406.8 59.9 407.433 59.8 408.1 59.8ZM408.1 60.8C407.633 60.8 407.167 60.9 406.7 61.1C406.3 61.3 405.933 61.5333 405.6 61.8C405.267 62.1333 405 62.5 404.8 62.9C404.6 63.3666 404.467 63.8666 404.4 64.4H411.6C411.533 63.8666 411.433 63.3666 411.3 62.9C411.1 62.5 410.833 62.1333 410.5 61.8C410.167 61.4666 409.8 61.2333 409.4 61.1C409 60.9 408.567 60.8 408.1 60.8ZM419.8 59.8C420.533 59.8 421.233 59.9333 421.9 60.2C422.567 60.4666 423.133 60.8333 423.6 61.3L422.8 62.2C422.4 61.8 421.933 61.4666 421.4 61.2C420.933 61 420.4 60.9 419.8 60.9C419.267 60.9 418.767 61 418.3 61.2C417.833 61.4 417.433 61.7 417.1 62.1C416.7 62.4333 416.4 62.8333 416.2 63.3C415.8 64.4333 415.8 65.5333 416.2 66.6C416.4 67.0666 416.667 67.5 417 67.9C417.4 68.2333 417.833 68.5 418.3 68.7C418.767 68.9 419.267 69 419.8 69C420.4 69 420.967 68.9 421.5 68.7C421.967 68.4333 422.4 68.1333 422.8 67.8L423.6 68.6C423.133 69.1333 422.567 69.5333 421.9 69.8C420.6 70.3 419.1 70.3 417.8 69.8C417.133 69.5333 416.567 69.1666 416.1 68.7C415.633 68.2333 415.3 67.6666 415.1 67C414.6 65.7 414.6 64.2 415.1 62.9C415.3 62.3 415.633 61.7333 416.1 61.2C416.567 60.7333 417.133 60.4 417.8 60.2C418.467 59.8666 419.133 59.7333 419.8 59.8ZM427.2 64.2H428.9L433.1 59.9H434.6L429.8 64.7L434.7 70H433.2L428.9 65.3H427.2V70H426V54.6H427.2V64.2Z" fill="#B9D6C5"/>
<path d="M371.6 32H360.6V12.2H371.6V32Z" fill="#B9D6C5"/>
<path d="M362.6 27.6C363.4 29.3 364.6 30.8 366.1 32C364.2 33.4 362 34.3 359.7 34.6C357.3 34.9 355 34.4 352.9 33.4C350.7 32.4 349 30.8 347.7 28.8C346.5 26.8 345.8 24.4 345.8 22.1C345.8 19.7 346.5 17.4 347.7 15.4C349 13.4 350.7 11.8 352.9 10.8C355 9.69997 357.3 9.29997 359.7 9.59997C362 9.79997 364.2 10.7 366.1 12.2C364.6 13.4 363.4 14.9 362.6 16.6C361.7 18.3 361.3 20.2 361.3 22.1C361.3 24 361.7 25.9 362.6 27.6Z" fill="#91B19E"/>
<path d="M386.4 22.1C386.4 24.4 385.7 26.8 384.5 28.8C383.2 30.8 381.4 32.4 379.3 33.4C377.2 34.4 374.8 34.9 372.5 34.6C370.2 34.3 367.9 33.4 366.1 32C367.6 30.8 368.8 29.3 369.6 27.6C370.4 25.9 370.9 24 370.9 22.1C370.9 20.2 370.4 18.3 369.6 16.6C368.8 14.9 367.6 13.4 366.1 12.2C367.9 10.7 370.2 9.79997 372.5 9.59997C374.8 9.29997 377.2 9.69997 379.3 10.8C381.4 11.8 383.2 13.4 384.5 15.4C385.7 17.4 386.4 19.7 386.4 22.1Z" fill="#B9D6C5"/>
<path d="M385.1 29.9V29.5H384.9V29.4H385.3V29.5H385.2V29.9H385.1ZM385.9 29.9V29.5L385.7 29.8L385.5 29.5V29.9H385.4V29.4H385.6L385.7 29.7L385.8 29.4H386V29.9H385.9Z" fill="#F79E1B"/>
<path opacity="0.9" d="M1274.5 24.2V52.2H1269.6V28H1260.9V52.2H1256.1V24.2H1274.5ZM1282.6 52.5999C1280.47 52.5999 1278.83 52.1666 1277.7 51.2999V47.4C1278.3 47.8666 1278.97 48.2 1279.7 48.4C1280.43 48.6666 1281.3 48.7999 1282.3 48.7999C1283.83 48.7999 1285 48.3333 1285.8 47.4C1286.53 46.5333 1287 45.3 1287.2 43.7H1280.2V39.9H1287.2C1286.73 36.8333 1285.13 35.2999 1282.4 35.2999C1281.6 35.2999 1280.77 35.4333 1279.9 35.7C1279.1 35.9666 1278.47 36.2666 1278 36.5999V32.5C1278.53 32.2333 1279.23 31.9999 1280.1 31.7999C1280.9 31.5999 1281.93 31.5 1283.2 31.5C1284.67 31.5 1285.97 31.7666 1287.1 32.2999C1287.37 32.4333 1287.63 32.5666 1287.9 32.7C1288.17 32.9 1288.4 33.0666 1288.6 33.2C1288.87 33.4 1289.1 33.5999 1289.3 33.7999C1289.5 34.0666 1289.7 34.3 1289.9 34.5C1290.7 35.4333 1291.3 36.5333 1291.7 37.7999C1292.1 39.1333 1292.3 40.5666 1292.3 42.0999C1292.3 45.4999 1291.5 48.1 1289.9 49.9C1288.3 51.7 1285.87 52.5999 1282.6 52.5999ZM1303.6 29.2999C1301.67 29.2999 1300.2 28.7999 1299.2 27.7999C1298.27 26.8666 1297.8 25.6666 1297.8 24.2H1301.8C1301.8 24.9333 1301.97 25.4333 1302.3 25.7C1302.63 26.0333 1303.07 26.2 1303.6 26.2C1304.13 26.2 1304.53 26.0333 1304.8 25.7C1305.13 25.3666 1305.3 24.8666 1305.3 24.2H1309.3C1309.3 24.9333 1309.17 25.6 1308.9 26.2C1308.63 26.8 1308.27 27.3333 1307.8 27.7999C1307.33 28.2666 1306.77 28.6333 1306.1 28.9C1305.37 29.1666 1304.53 29.2999 1303.6 29.2999ZM1300.1 31.9V44.5L1307.4 31.9H1311.6V52.2H1307V39.7L1299.7 52.2H1295.5V31.9H1300.1Z" fill="#B9D6C5"/>
<mask id="mask0_608_10" style="mask-type:luminance" maskUnits="userSpaceOnUse" x="1209" y="20" width="38" height="38">
<path d="M1209 34.44C1209 26.46 1215.46 20 1223.44 20H1231.61C1239.58 20 1246.04 26.46 1246.04 34.44V42.66C1246.04 50.64 1239.58 57.1 1231.61 57.1H1223.44C1215.46 57.1 1209 50.64 1209 42.66V34.44Z" fill="white"/>
</mask>
<g mask="url(#mask0_608_10)">
<path opacity="0.9" d="M1227.5 57.1C1217.3 57.1 1209 48.8 1209 38.5C1209 28.3 1217.3 20 1227.5 20C1237.8 20 1246 28.3 1246 38.5C1246 48.8 1237.8 57.1 1227.5 57.1Z" fill="#B9D6C5"/>
<path d="M1230.1 49.7H1234V27.4H1228.4C1222.7 27.4 1219.7 30.4 1219.7 34.6C1219.7 38.1 1221.4 40.1 1224.3 42.2L1219.2 49.7H1223.4L1229 41.3L1227.1 40C1224.7 38.4 1223.6 37.1 1223.6 34.4C1223.6 32 1225.2 30.4 1228.4 30.4H1230.1V49.7Z" fill="#333333"/>
</g>
<path fill-rule="evenodd" clip-rule="evenodd" d="M1514.1 34.7C1515.9 36.8333 1516.53 39.3333 1516 42.2H1502.6C1503.2 44.4 1505 45.7 1507.4 45.7C1509.4 45.7 1510.8 44.9 1511.7 43.3L1515.4 45C1513.9 47.8 1510.9 49.7 1507.2 49.7C1504.5 49.7 1502.3 48.8 1500.6 47.1C1498.8 45.3667 1497.9 43.2 1497.9 40.6C1497.9 38 1498.77 35.8333 1500.5 34.1C1502.3 32.3667 1504.5 31.5 1507.1 31.5C1510 31.5 1512.3 32.6 1514.1 34.7ZM1502.7 38.7H1511.5C1510.8 36.7 1509.2 35.5 1507.1 35.5C1505 35.5 1503.3 36.7 1502.7 38.7Z" fill="#B9D6C5"/>
<path fill-rule="evenodd" clip-rule="evenodd" d="M1534.6 34.1C1536.2 35.8333 1537 38 1537 40.6C1537 43.2 1536.2 45.3667 1534.6 47.1C1533 48.8333 1531 49.7 1528.6 49.7C1526.4 49.7 1524.57 48.9 1523.1 47.3V56.1H1518.5V31.9H1523.1V33.9C1524.57 32.3 1526.4 31.5 1528.6 31.5C1531 31.5 1533 32.3667 1534.6 34.1ZM1527.7 45.5C1529.03 45.5 1530.13 45.0333 1531 44.1C1531.8 43.2 1532.3 42 1532.3 40.6C1532.3 39.2 1531.8 38 1531 37.1C1530.13 36.1667 1529.03 35.7 1527.7 35.7C1526.37 35.7 1525.27 36.1667 1524.4 37.1C1523.53 38.0333 1523.1 39.2 1523.1 40.6C1523.1 42 1523.5 43.2 1524.4 44.1C1525.27 45.0333 1526.37 45.5 1527.7 45.5Z" fill="#B9D6C5"/>
<path d="M1543.9 42.7L1552.2 31.9H1556.6V49.3H1552.1V38.5L1543.7 49.3H1539.3V31.9H1543.9V42.7Z" fill="#B9D6C5"/>
<path d="M1564.9 49.3H1560.3V31.9H1577V49.3H1572.4V35.9H1564.9V49.3Z" fill="#B9D6C5"/>
<path d="M1457.5 18L1468.1 30.9L1462.8 37.3L1447 18H1457.5Z" fill="#B9D6C5"/>
<path d="M1477 26.3L1473.3 30.9L1462.8 18H1471.9C1472.8 18 1473.7 18.4 1474.3 19.1L1477 22.5C1477.9 23.6 1478 25.2 1477 26.3Z" fill="#B9D6C5"/>
<path d="M1490.2 42.5L1475.1 60.9C1474.6 61.6 1473.7 62 1472.8 62H1463.7L1486.5 34.1L1490.2 38.6C1491.1 39.7 1491.1 41.4 1490.2 42.5Z" fill="#B9D6C5"/>
<path d="M1482.3 32.8L1458.4 62H1447.8L1473.3 30.9L1477 26.3C1478 25.2 1477.9 23.6 1477 22.5L1482.3 28.9C1483.2 30.1 1483.2 31.7 1482.3 32.8Z" fill="#B9D6C5"/>
<path d="M1607.83 56.4249C1607.06 55.9837 1606.07 55.6528 1605.08 55.7631C1604.64 55.7631 1604.19 55.7631 1603.75 55.8734V53.0055H1608.28V51.9024H1602.54V62.2711C1603.2 62.3814 1603.97 62.3814 1604.64 62.3814C1605.96 62.4917 1607.28 62.0505 1608.39 61.1681C1608.94 60.6166 1609.27 59.7341 1609.27 58.8517C1609.27 57.9692 1608.72 56.9765 1607.83 56.4249ZM1607.17 60.5063C1606.62 61.0578 1605.85 61.3887 1604.97 61.2784C1604.64 61.2784 1604.19 61.2784 1603.86 61.1681V56.7559H1604.97C1605.63 56.7559 1606.4 56.8662 1606.95 57.3074C1607.5 57.7486 1607.72 58.3001 1607.72 58.962C1607.83 59.6238 1607.61 60.1753 1607.17 60.5063ZM1616.22 57.7486C1616.22 56.2043 1615.67 54.7704 1613.35 54.7704C1612.47 54.7704 1611.58 54.991 1610.92 55.4322L1611.25 56.3146C1611.8 55.9837 1612.47 55.7631 1613.24 55.7631C1614.12 55.6528 1614.89 56.3146 1615 57.1971V57.6383C1612.14 57.6383 1610.48 58.6311 1610.48 60.3959C1610.48 61.6093 1611.47 62.6021 1612.69 62.6021H1612.8C1613.68 62.6021 1614.56 62.2711 1615.11 61.499L1615.22 62.3814H1616.44C1616.33 61.8299 1616.33 61.1681 1616.33 60.6166V57.7486H1616.22ZM1614.89 59.7341C1614.89 59.8444 1614.89 60.065 1614.78 60.1753C1614.56 60.9475 1613.79 61.499 1613.02 61.3887C1612.36 61.3887 1611.8 60.9475 1611.69 60.2856V60.065C1611.69 58.6311 1613.35 58.3001 1614.89 58.4104V59.7341ZM1623.28 57.8589H1619.75V54.8807H1618.42V62.2711H1619.75V58.8517H1623.28V62.2711H1624.6V54.7704H1623.28V57.8589ZM1629.78 58.1898L1633.09 54.7704H1631.44L1628.57 58.0795H1628.24V54.7704H1626.92V62.2711H1628.24V58.962H1628.46C1629.56 58.8517 1630.67 59.6238 1631 60.7269C1631.22 61.2784 1631.44 61.7196 1631.66 62.2711H1633.09C1632.76 61.7196 1632.54 61.0578 1632.32 60.3959C1631.77 59.0723 1631 58.3001 1629.78 58.1898ZM1641.15 55.7631C1641.7 55.7631 1642.25 55.8734 1642.69 56.094L1643.02 54.991C1642.47 54.7704 1641.81 54.6601 1641.15 54.6601C1639.05 54.5497 1637.29 56.094 1637.06 58.3001V58.7414C1636.95 60.7269 1638.39 62.3814 1640.37 62.6021H1640.82C1641.59 62.6021 1642.36 62.4918 1643.02 62.1608L1642.8 61.1681C1642.25 61.3887 1641.7 61.499 1641.15 61.499C1639.71 61.499 1638.5 60.3959 1638.5 58.962V58.7414C1638.39 57.3074 1639.38 56.094 1640.82 55.8734C1640.93 55.7631 1641.04 55.7631 1641.15 55.7631ZM1648.76 58.4104C1649.64 58.3001 1650.3 57.6383 1650.3 56.7559C1650.3 55.1013 1648.21 54.8807 1646.99 54.8807C1646.22 54.8807 1645.34 54.8807 1644.57 54.991V62.2711C1645.01 62.2711 1645.78 62.3814 1646.66 62.3814C1648.1 62.3814 1650.63 62.1608 1650.63 60.1753C1650.63 59.0723 1649.86 58.5207 1648.76 58.4104ZM1645.89 55.7631C1646.22 55.7631 1646.66 55.6528 1646.99 55.7631C1648.32 55.7631 1648.98 56.094 1648.98 56.8662C1648.98 57.6383 1647.87 57.9692 1646.88 57.9692H1645.89V55.7631ZM1646.99 61.499H1645.89V58.8517H1646.88C1648.21 58.8517 1649.31 59.0723 1649.31 60.1753C1649.2 61.2784 1647.87 61.499 1646.99 61.499ZM1655.38 54.6601C1653.17 54.6601 1651.85 56.4249 1651.85 58.7414C1651.74 60.6166 1653.17 62.3814 1655.04 62.4918H1655.49C1656.37 62.4918 1657.25 62.3814 1658.02 62.0505L1657.69 61.0578C1657.03 61.3887 1656.37 61.499 1655.6 61.499C1654.27 61.6093 1653.06 60.6166 1653.06 59.2929V58.8517H1658.35V58.1898C1658.46 56.7559 1657.8 54.6601 1655.38 54.6601ZM1653.17 57.8589C1653.17 56.7559 1654.16 55.7631 1655.27 55.6528C1656.37 55.6528 1657.25 56.5352 1657.14 57.6383V57.8589H1653.17ZM1666.3 58.3001L1669.27 54.8807H1667.62L1665.08 58.1898H1664.86V54.8807H1663.54V58.1898H1663.21L1660.78 54.8807H1659.24L1662.21 58.3001C1661.11 58.4104 1660.23 59.1826 1659.9 60.2856C1659.68 60.9475 1659.35 61.6093 1659.13 62.2711H1660.45C1660.78 61.7196 1661 61.1681 1661.22 60.6166C1661.44 59.6238 1662.32 58.8517 1663.43 58.962H1663.65V62.2711H1664.97V59.0723H1665.19C1666.19 58.962 1667.18 59.7341 1667.4 60.7269C1667.51 61.2784 1667.73 61.8299 1668.06 62.3814H1669.38C1669.05 61.7196 1668.83 60.9475 1668.5 60.2856C1668.17 59.1826 1667.29 58.3001 1666.3 58.3001ZM1673.02 58.7414C1672.47 59.6238 1672.25 60.1753 1671.81 61.0578C1671.92 59.9547 1671.92 59.1826 1671.92 58.0795V54.8807H1670.49V62.2711H1672.03C1672.8 60.9475 1673.69 59.5135 1674.35 58.3001C1674.79 57.528 1675.12 56.9765 1675.56 55.9837C1675.56 57.1971 1675.45 57.8589 1675.45 59.0723V62.2711H1676.77V54.7704H1675.34L1673.02 58.7414ZM1684.94 54.8807H1683.39L1682.29 56.4249C1682.07 56.8662 1681.74 57.1971 1681.52 57.6383C1681.3 57.1971 1681.08 56.8662 1680.75 56.4249L1679.64 54.7704H1678.1L1680.64 58.4104L1678.1 62.2711H1679.64L1680.75 60.6166C1681.08 60.1753 1681.3 59.7341 1681.52 59.2929C1681.74 59.7341 1682.07 60.1753 1682.29 60.6166L1683.39 62.2711H1684.94L1682.29 58.4104L1684.94 54.8807ZM1693.54 54.6601C1692.44 54.6601 1691.45 55.2116 1690.89 56.094L1690.78 54.8807H1689.57C1689.57 55.5425 1689.68 56.4249 1689.68 57.3074V65.47H1691V61.3887C1691.56 62.1608 1692.44 62.6021 1693.32 62.6021C1695.09 62.6021 1696.74 61.2784 1696.74 58.5207C1696.74 56.2043 1695.31 54.6601 1693.54 54.6601ZM1693.1 61.499C1692.11 61.499 1691.34 60.8372 1691 59.9547C1691 59.7341 1690.89 59.6238 1690.89 59.4032V58.0795C1690.89 57.8589 1690.89 57.7486 1691 57.528C1691.22 56.5352 1692.11 55.8734 1693.1 55.8734C1694.53 55.8734 1695.31 57.1971 1695.31 58.6311C1695.31 60.1753 1694.53 61.3887 1693.1 61.499ZM1701.37 54.6601C1699.17 54.6601 1697.84 56.4249 1697.84 58.7414C1697.62 60.6166 1699.06 62.3814 1701.04 62.4918H1701.59C1702.48 62.4918 1703.25 62.3814 1704.13 62.0505L1703.91 61.0578C1703.25 61.3887 1702.59 61.499 1701.81 61.499C1700.49 61.6093 1699.39 60.6166 1699.28 59.2929V58.8517H1704.57V58.1898C1704.57 56.7559 1703.91 54.6601 1701.37 54.6601ZM1699.28 57.8589C1699.28 56.7559 1700.27 55.7631 1701.37 55.6528C1702.48 55.6528 1703.36 56.5352 1703.25 57.6383V57.8589H1699.28ZM1714.06 61.1681H1711.41V54.7704H1710.09V61.1681H1707.44V54.7704H1706.12V62.2711H1715.38V54.7704H1714.06V61.1681ZM1720.68 54.5497C1718.47 54.5497 1717.15 56.3146 1717.15 58.6311C1716.93 60.5062 1718.36 62.2711 1720.35 62.3814H1720.9C1721.78 62.3814 1722.55 62.2711 1723.43 61.9402L1723.21 60.9475C1722.55 61.2784 1721.89 61.3887 1721.12 61.3887C1719.79 61.499 1718.69 60.5062 1718.58 59.1826V58.7414H1723.88V58.0795C1723.77 56.7559 1723.1 54.6601 1720.68 54.5497ZM1718.47 57.8589C1718.47 56.7559 1719.46 55.7631 1720.57 55.6528C1721.67 55.6528 1722.44 56.5352 1722.44 57.6383V57.8589H1718.47ZM1730.38 57.8589H1726.85V54.8807H1725.53V62.2711H1726.85V58.8517H1730.38V62.2711H1731.71V54.7704H1730.38V57.8589ZM1736.34 58.6311C1735.9 59.5135 1735.57 60.065 1735.13 60.9475H1735.02C1735.13 59.8444 1735.13 59.0723 1735.13 57.9692V54.7704H1733.8V62.2711H1735.35C1736.12 60.9475 1737 59.5135 1737.66 58.3001C1738.1 57.528 1738.44 56.9765 1738.88 55.9837C1738.77 57.1971 1738.77 57.8589 1738.77 59.0723V62.2711H1740.09V54.7704H1738.55L1736.34 58.6311ZM1745.61 53.6673C1746.6 53.7776 1747.59 53.0055 1747.7 52.0127V51.7921H1746.71C1746.6 52.4539 1746.27 53.0055 1745.61 53.0055C1744.94 53.0055 1744.61 52.4539 1744.61 51.7921H1743.62C1743.51 52.7849 1744.28 53.6673 1745.27 53.7776C1745.5 53.6673 1745.5 53.6673 1745.61 53.6673ZM1744.94 58.6311C1744.5 59.5135 1744.17 60.065 1743.73 60.9475C1743.84 59.8444 1743.84 59.0723 1743.84 57.9692V54.7704H1742.52V62.2711H1744.06C1744.83 60.9475 1745.72 59.5135 1746.38 58.3001C1746.82 57.528 1747.15 56.9765 1747.59 55.9837C1747.48 57.1971 1747.48 57.8589 1747.48 59.0723V62.2711H1748.8V54.7704H1747.15L1744.94 58.6311ZM1632.21 26.9734C1630.89 20.0241 1624.71 15.1707 1617.76 15.1707C1614.78 15.1707 1611.92 16.0531 1609.49 17.7077L1630.34 27.3043C1632.21 28.1867 1632.21 26.9734 1632.21 26.9734ZM1629.01 38.8864C1628.68 39.107 1628.24 39.107 1627.91 38.8864L1603.86 29.9516C1603.2 29.731 1602.87 30.1722 1602.98 30.5031C1603.53 38.2245 1610.04 44.181 1617.76 44.181C1622.06 44.181 1626.14 42.3058 1629.01 38.8864ZM1601.99 28.297C1601.99 27.9661 1602.21 27.5249 1602.87 27.8558C1603.64 28.0764 1628.13 38.0039 1628.24 38.0039C1629.01 38.2245 1629.67 38.2245 1630.01 37.7833C1630.45 37.1215 1630.89 36.3493 1631.22 35.5772C1631 36.0184 1630.23 37.0112 1629.01 36.6802C1628.9 36.6802 1601.55 25.2085 1601.33 25.0982C1600.33 24.8776 1599.67 25.76 1600.33 26.5321L1602.54 29.4001C1602.32 29.0692 1602.21 28.7382 1601.99 28.297ZM1598.9 22.0096C1599.12 22.1199 1629.23 35.0257 1629.45 35.136C1630.23 35.5772 1631.22 35.3566 1631.77 34.5844C1631.77 34.5844 1631.77 34.4741 1631.88 34.4741C1632.1 33.8123 1632.32 33.1505 1632.43 32.3783C1632.21 33.2608 1631.22 33.8123 1630.34 33.4814H1630.23L1597.69 18.921C1596.8 18.4798 1595.48 19.3623 1596.25 20.4653L1598.79 24.2157C1598.46 23.6642 1598.24 23.1127 1598.13 22.4508C1598.13 22.1199 1598.35 21.8993 1598.57 21.8993C1598.68 21.8993 1598.79 21.8993 1598.9 22.0096ZM1595.37 15.9428L1630.45 31.2753C1631.22 31.6062 1632.43 31.4959 1632.43 30.5031V29.6207C1632.43 29.0692 1632.43 28.5176 1632.32 27.9661C1632.32 28.297 1631.99 29.9516 1630.23 29.0692C1630.01 28.9589 1594.38 12.5233 1593.83 12.1924C1593.38 11.8615 1592.72 11.9718 1592.28 12.413C1591.84 12.8542 1591.95 13.5161 1592.39 13.9573L1595.26 18.4798C1594.93 17.818 1594.71 17.1562 1594.6 16.384C1594.49 16.0531 1594.82 15.7222 1595.37 15.9428ZM1725.86 25.76C1726.3 25.8703 1726.63 26.0909 1726.85 26.5321C1727.07 27.4146 1727.18 28.4073 1727.07 29.2898V33.8123H1723.21V29.4001C1723.1 28.5176 1723.21 27.5249 1723.43 26.6424C1723.65 26.2012 1723.99 25.9806 1724.43 25.8703V24.7672H1718.25V25.8703C1718.69 25.9806 1719.13 26.2012 1719.35 26.6424C1719.57 27.5249 1719.68 28.4073 1719.57 29.4001V39.8791C1719.68 40.7616 1719.57 41.644 1719.35 42.6367C1719.13 43.078 1718.69 43.4089 1718.25 43.4089V44.5119H1724.43V43.4089C1723.99 43.2986 1723.65 43.078 1723.43 42.6367C1723.21 41.7543 1723.1 40.7616 1723.21 39.8791V35.136H1727.07V39.8791C1727.18 40.7616 1727.07 41.7543 1726.85 42.6367C1726.63 43.078 1726.3 43.2986 1725.86 43.4089V44.5119H1732.04V43.4089C1731.6 43.2986 1731.16 43.078 1730.93 42.6367C1730.71 41.7543 1730.6 40.8719 1730.71 39.8791V29.4001C1730.6 28.5176 1730.71 27.6352 1730.93 26.6424C1731.16 26.2012 1731.6 25.8703 1732.04 25.8703V24.7672H1725.86V25.76ZM1645.78 43.1883C1645.12 43.2986 1644.46 42.9677 1644.01 42.5264C1643.57 42.0852 1643.35 41.4234 1643.24 40.8719V20.1344L1649.75 44.2913H1650.63L1656.81 20.5756V39.2173C1656.81 40.0997 1656.81 40.9822 1656.7 41.8646C1656.59 42.1955 1656.48 42.6367 1656.15 42.8574C1655.82 43.1883 1655.38 43.2986 1654.93 43.2986H1654.38V44.4016H1663.65V43.2986H1663.1C1662.66 43.2986 1662.21 43.1883 1661.88 42.8574C1661.55 42.6367 1661.44 42.3058 1661.33 41.8646C1661.22 40.9822 1661.11 40.0997 1661.22 39.107V21.1272C1661.22 20.2447 1661.22 19.3623 1661.33 18.4798C1661.44 18.1489 1661.55 17.818 1661.88 17.4871C1662.1 17.1562 1662.55 17.0459 1662.99 17.0459H1663.54V15.9428H1656.37L1651.51 34.6947L1646.55 15.9428H1639.27V17.0459H1639.82C1640.26 17.0459 1640.71 17.1562 1641.04 17.4871C1641.37 17.7077 1641.48 18.0386 1641.59 18.4798C1641.7 19.3623 1641.81 20.2447 1641.7 21.1272V40.6512C1641.59 41.2028 1641.48 41.644 1641.26 42.1955C1641.15 42.5264 1640.82 42.8574 1640.48 43.078C1640.15 43.2986 1639.82 43.4089 1639.38 43.4089H1639.16V44.5119H1645.67L1645.78 43.1883ZM1747.81 42.4161C1747.04 40.9822 1746.38 39.5482 1745.72 38.1142L1742.85 31.3856C1742.85 31.3856 1745.5 27.194 1746.49 26.4218C1746.82 26.0909 1747.37 25.8703 1747.81 25.8703V24.7672H1742.41V25.8703C1744.28 25.8703 1744.06 27.4146 1743.62 28.1867C1743.51 28.4073 1739.65 34.3638 1739.65 34.3638V15.9428H1734.69V17.0459C1735.13 17.0459 1735.57 17.3768 1735.79 17.7077C1736.01 18.5901 1736.12 19.5829 1736.01 20.4653V39.7688C1736.12 40.6512 1736.01 41.5337 1735.79 42.4161C1735.57 42.8574 1735.13 43.1883 1734.69 43.1883V44.2913H1740.97V43.1883C1740.53 43.1883 1740.09 42.8574 1739.87 42.5264C1739.65 42.1955 1739.65 41.8646 1739.65 39.7688V36.4596L1740.42 35.2463L1742.85 40.6512C1743.18 41.2028 1743.29 41.8646 1743.4 42.4161C1743.4 42.6367 1743.29 42.8574 1743.18 42.9677C1743.07 43.1883 1742.85 43.2986 1742.52 43.1883V44.2913H1748.8V43.1883C1748.47 43.1883 1748.03 42.8574 1747.81 42.4161ZM1672.03 41.7543C1671.92 42.0852 1671.81 42.5264 1671.48 42.7471C1671.15 43.078 1670.71 43.1883 1670.27 43.1883H1669.72V44.2913H1678.98V43.1883H1678.43C1677.99 43.1883 1677.55 43.078 1677.22 42.7471C1676.89 42.5264 1676.77 42.1955 1676.66 41.7543C1676.44 40.9822 1676.44 39.9894 1676.44 39.107V17.5974H1677.77C1678.76 17.4871 1679.75 17.9283 1680.42 18.8107C1681.19 19.9138 1681.08 21.5684 1681.3 23.6642H1682.4V16.0531H1666.41V23.6642H1667.51C1667.73 21.5684 1667.62 19.9138 1668.39 18.8107C1668.94 18.0386 1669.94 17.4871 1670.93 17.5974H1672.25V39.2173C1672.14 40.0997 1672.14 40.9822 1672.03 41.7543ZM1698.62 42.8574C1699.06 42.5264 1699.39 42.1955 1699.72 41.7543C1699.72 41.644 1699.83 41.5337 1699.83 41.5337C1701.04 39.6585 1701.59 35.7978 1701.26 32.3783C1701.26 30.6134 1700.71 28.8486 1699.72 27.3043C1699.5 26.9734 1699.28 26.7527 1698.95 26.5321L1698.84 26.4218C1698.06 25.76 1697.18 25.2085 1696.19 24.9879C1694.64 24.5466 1692.99 24.4363 1691.34 24.4363V17.5974H1694.87C1695.2 17.5974 1695.64 17.7077 1695.97 17.818C1696.52 18.0386 1697.07 18.3695 1697.4 18.921C1697.84 19.4726 1698.06 20.2447 1698.06 20.9065C1698.28 21.6787 1698.39 22.5611 1698.51 23.6642H1699.61V15.9428H1684.94V17.0459C1685.49 16.9355 1686.15 17.1562 1686.59 17.3768C1686.92 17.5974 1687.14 17.9283 1687.25 18.3695V18.5901C1687.36 19.3623 1687.36 20.1344 1687.36 20.9065V39.107C1687.36 39.8791 1687.36 40.7616 1687.25 41.5337C1687.25 41.644 1687.25 41.7543 1687.14 41.9749C1687.14 42.0852 1687.03 42.1955 1687.03 42.3058C1686.92 42.5264 1686.81 42.7471 1686.59 42.9677C1686.26 43.1883 1685.93 43.2986 1685.49 43.2986H1684.83V44.4016H1693.87C1695.53 44.4016 1697.18 43.9604 1698.62 42.8574ZM1692.33 42.6367C1692.11 42.5264 1692 42.4161 1691.89 42.1955C1691.78 42.0852 1691.78 41.9749 1691.78 41.7543C1691.67 41.3131 1691.56 40.8719 1691.56 40.4306V26.0909C1692.44 26.0909 1693.32 26.2012 1694.09 26.4218C1694.31 26.5321 1694.42 26.5321 1694.53 26.6424C1695.31 27.194 1695.86 27.9661 1696.08 28.8486C1696.19 29.0692 1696.19 29.4001 1696.3 29.6207C1696.41 29.9516 1696.41 29.9516 1696.41 30.1722C1696.63 31.0547 1696.74 31.9371 1696.74 32.8195C1696.85 34.3638 1696.85 35.9081 1696.63 37.4524C1696.63 37.8936 1696.52 38.3348 1696.41 38.7761C1696.3 39.107 1696.19 39.5482 1696.08 39.8791C1695.86 40.6512 1695.42 41.3131 1694.87 41.8646L1694.75 41.9749C1694.64 42.0852 1694.42 42.1955 1694.31 42.3058C1693.87 42.5264 1693.32 42.7471 1692.88 42.7471C1692.66 42.8574 1692.55 42.7471 1692.33 42.6367ZM1714.61 41.4234C1714.5 41.3131 1714.39 41.0925 1714.39 40.8719V32.0474C1714.39 30.7237 1714.39 29.2898 1714.17 27.9661C1713.84 26.2012 1712.73 24.2157 1710.09 24.2157C1709.09 24.2157 1708.21 24.4363 1707.33 24.9879C1706.45 25.4291 1705.68 26.2012 1705.23 27.0837C1704.68 27.9661 1704.46 29.0692 1704.46 30.0619C1704.24 31.165 1705.01 32.1577 1706.01 32.3783H1706.45C1707.44 32.3783 1708.32 31.4959 1708.32 30.5031C1708.32 30.1722 1708.21 29.8413 1707.99 29.5104C1707.66 28.9589 1706.34 27.9661 1707.55 26.4218C1707.88 25.9806 1708.43 25.76 1708.98 25.76C1709.98 25.76 1710.31 26.5321 1710.53 27.194C1710.64 28.0764 1710.75 29.0692 1710.64 29.9516V31.9371C1708.65 33.2608 1706.89 34.805 1705.45 36.6802C1704.57 37.7833 1704.13 39.107 1704.02 40.4306C1704.02 42.6367 1705.23 44.5119 1707.11 44.5119C1708.98 44.5119 1709.98 43.2986 1710.53 41.4234C1710.53 42.3058 1710.75 43.078 1711.3 43.7398C1711.74 44.2913 1712.29 44.5119 1712.96 44.5119C1713.62 44.5119 1714.28 44.2913 1714.83 43.8501C1715.38 43.1883 1715.82 42.5264 1716.15 41.644L1715.38 40.9822C1715.27 41.4234 1714.94 41.5337 1714.61 41.4234ZM1710.64 39.8791C1709.32 42.0852 1706.23 40.6512 1707.88 37.4524C1708.54 36.0184 1709.54 34.6947 1710.64 33.4814V39.8791Z" fill="#B9D6C5"/>
</svg>
