<svg width="1426" height="435" viewBox="0 0 1426 435" fill="none" xmlns="http://www.w3.org/2000/svg">
<path d="M687.251 257.546H816.741C823.218 257.546 827.067 261.285 827.067 267.565V424.367C827.067 426.67 827.543 427.138 829.84 427.138H863.045C865.856 427.138 866.133 426.378 866.133 424.367V243.811C866.133 236.019 864.381 230.36 860.916 226.982C857.413 223.589 850.968 221.862 841.725 221.862H662.259C653.009 221.862 646.564 223.589 643.06 226.99C639.619 230.36 637.867 236.019 637.867 243.811V424.367C637.867 426.378 638.121 427.138 640.94 427.138H674.152C676.457 427.138 676.91 426.67 676.91 424.367V267.565C676.91 261.285 680.782 257.546 687.251 257.546ZM863.045 435H829.84C823.172 435 819.2 431.023 819.2 424.367V267.565C819.2 265.922 819.085 265.407 816.741 265.407H687.251C684.892 265.407 684.777 265.922 684.777 267.565V424.367C684.777 431.023 680.805 435 674.152 435H640.94C634.095 435 630 431.023 630 424.367V243.811C630 233.823 632.535 226.268 637.575 221.355C642.669 216.411 650.728 214 662.259 214H841.725C853.249 214 861.331 216.411 866.402 221.355C871.442 226.268 874 233.823 874 243.811V424.367C874 431.023 869.905 435 863.045 435Z" fill="white"/>
<path d="M991.092 348.576H1082.49L1037.32 265.177C1037.29 265.146 1037.28 265.123 1037.26 265.1H1035.75C1035.73 265.139 1035.69 265.185 1035.67 265.246L991.092 348.576ZM1095.69 356.438H977.962L1028.8 261.438C1030.35 258.697 1032.75 257.239 1035.59 257.239H1037.42C1040.26 257.239 1042.65 258.697 1044.16 261.338L1095.69 356.438ZM963.031 383.9H1110.56L1133.39 425.457C1133.76 426.271 1134.37 427.138 1136.82 427.138H1175.41C1175.67 427.138 1175.89 427.123 1176.06 427.108C1175.99 426.816 1175.85 426.386 1175.55 425.833L1075.03 242.982C1070.32 234.499 1065.57 228.794 1060.94 226.03C1056.31 223.267 1050.45 221.862 1043.5 221.862H1025.57C1019.8 221.862 1014.93 223.205 1010.67 225.954C1006.38 228.733 1001.8 234.46 997.07 242.982L897.375 425.948C897.137 426.432 896.999 426.808 896.945 427.085C897.175 427.115 897.49 427.138 897.888 427.138H937.4C939.5 427.138 940.328 426.378 940.956 425.242L963.031 383.9ZM1175.41 435H1136.82C1131.93 435 1128.21 432.827 1126.32 428.897L1105.92 391.761H967.737L947.862 428.958C945.724 432.912 942.114 435 937.4 435H897.888C892.37 435 890.292 432.543 889.511 430.478C888.606 428.106 888.897 425.35 890.43 422.302L990.202 239.189C995.644 229.37 1000.94 222.883 1006.41 219.351C1011.89 215.804 1018.34 214 1025.57 214H1043.5C1051.88 214 1059.1 215.781 1064.96 219.274C1070.87 222.806 1076.42 229.316 1081.88 239.166L1081.9 239.174L1182.5 422.163C1184.09 425.334 1184.4 428.083 1183.5 430.478C1182.86 432.175 1180.95 435 1175.41 435Z" fill="white"/>
<path d="M1247.39 337.006H1280.11C1290.02 337.006 1297.34 338.051 1302.53 340.192C1307.79 342.388 1312.73 346.442 1317.18 352.246L1372.96 424.705C1373.96 426.094 1374.61 426.593 1374.92 426.77C1374.93 426.778 1375.7 427.138 1378.36 427.138H1417.18C1417.62 427.138 1417.94 427.1 1418.16 427.069C1418.21 425.925 1418.02 425.549 1418.02 425.549L1355.85 346.388C1348.71 337.068 1341.31 330.012 1333.87 325.406L1329.29 322.581L1333.36 319.072C1336.04 316.777 1338.82 314.028 1341.66 310.896C1344.52 307.717 1347.65 303.825 1350.96 299.326L1409.84 222.837C1409.98 222.629 1410.07 222.384 1410.02 221.954C1409.82 221.908 1409.49 221.862 1409 221.862H1371.39C1368.46 221.862 1367.62 222.23 1367.58 222.245C1367.34 222.399 1366.69 222.898 1365.8 224.165L1313.57 294.274C1311.18 297.338 1308.87 299.856 1306.68 301.844C1304.35 303.971 1301.73 305.644 1298.89 306.819C1296.13 307.971 1292.9 308.738 1289.28 309.076C1285.91 309.399 1281.84 309.552 1276.79 309.552H1247.39V224.633C1247.39 222.33 1246.92 221.862 1244.63 221.862H1211.88C1209.08 221.862 1208.83 222.622 1208.83 224.633V424.367C1208.83 426.378 1209.08 427.138 1211.88 427.138H1244.63C1246.92 427.138 1247.39 426.67 1247.39 424.367V337.006ZM1417.18 435H1378.36C1374.93 435 1372.55 434.532 1370.88 433.518C1369.41 432.635 1368.02 431.276 1366.68 429.388L1310.99 357.052C1307.37 352.338 1303.53 349.114 1299.54 347.463C1295.38 345.743 1288.85 344.868 1280.11 344.868H1255.22V424.367C1255.22 431.023 1251.27 435 1244.63 435H1211.88C1205.07 435 1201 431.023 1201 424.367V224.633C1201 217.977 1205.07 214 1211.88 214H1244.63C1251.27 214 1255.22 217.977 1255.22 224.633V301.691H1276.79C1281.53 301.691 1285.48 301.537 1288.53 301.253C1291.37 300.984 1293.84 300.416 1295.9 299.556C1297.89 298.727 1299.77 297.529 1301.43 296.002C1303.31 294.32 1305.29 292.132 1307.37 289.499L1359.47 219.543C1360.74 217.724 1362.11 216.365 1363.62 215.466C1365.31 214.453 1367.71 214 1371.39 214H1409C1415.18 214 1416.96 217.777 1417.45 219.405C1418.3 222.315 1417.82 225.109 1416.14 227.512L1357.2 304.071C1353.79 308.7 1350.51 312.8 1347.45 316.17C1345.71 318.112 1343.95 319.924 1342.22 321.59C1349 326.55 1355.66 333.244 1362.04 341.567L1424.21 420.712C1425.64 422.54 1426.22 425.066 1425.93 428.229C1425.79 429.825 1424.71 435 1417.18 435Z" fill="white"/>
<path d="M719.941 32.5116H773.535C778.358 32.5116 781.25 35.3031 781.25 39.9861V157.061C781.25 158.781 781.6 159.13 783.318 159.13H808.067C809.78 159.13 810.135 158.781 810.135 157.061V22.2572C810.135 16.4392 808.829 12.2148 806.246 9.69273C803.651 7.15921 798.914 5.86952 792.173 5.86952H706.997C700.719 5.86952 696.452 7.27958 694.327 10.0596C691.939 13.172 690.455 17.5283 689.911 23.0023C688.548 34.8503 687.288 45.4143 686.16 54.4421C685.031 63.4871 683.914 71.6953 682.861 78.8373C681.789 85.9736 680.678 92.3762 679.533 97.8731C678.387 103.404 677.099 108.403 675.707 112.719C673.066 120.658 670.105 125.828 666.674 128.556C663.198 131.319 659.417 132.718 655.425 132.718H638.168C636.071 132.718 635.865 133.285 635.865 134.787V157.061C635.865 158.563 636.071 159.13 638.168 159.13H661.336C670.706 159.13 677.935 156.998 682.815 152.791C687.832 148.475 691.807 141.809 694.665 132.97C696.613 127.089 698.371 120.503 699.912 113.361C701.498 106.093 702.976 98.3317 704.328 90.3069C705.674 82.2936 706.848 74.0798 707.833 65.8945C708.801 57.7265 709.666 49.7533 710.428 42.1986L710.456 42.0038C710.794 39.9231 711.379 38.02 712.169 36.3463C713.005 34.5923 715.033 32.5116 719.941 32.5116ZM808.067 165H783.318C778.346 165 775.385 162.031 775.385 157.061V39.9861C775.385 38.7652 775.294 38.3812 773.535 38.3812H719.941C718.097 38.3812 717.507 38.7824 717.467 38.8626C716.923 40.0205 716.511 41.3732 716.247 42.8807C715.502 50.4469 714.62 58.4258 713.652 66.5938C712.656 74.8708 711.47 83.1764 710.101 91.2813C708.738 99.3978 707.243 107.245 705.645 114.605C704.064 121.947 702.243 128.74 700.238 134.798C697.054 144.652 692.477 152.212 686.641 157.239C680.661 162.386 672.156 165 661.336 165H638.168C633.053 165 630 162.031 630 157.061V134.787C630 129.812 633.053 126.848 638.168 126.848H655.425C658.094 126.848 660.586 125.902 663.02 123.959C664.738 122.606 667.344 119.236 670.134 110.896C671.451 106.803 672.683 102.006 673.799 96.6751C674.911 91.2928 676.01 84.9991 677.053 77.9718C678.112 70.8756 679.212 62.7133 680.34 53.7199C681.469 44.7035 682.729 34.1567 684.092 22.3775C684.739 15.8431 686.612 10.4895 689.665 6.48857C692.964 2.18388 698.801 0 706.997 0H792.173C800.616 0 806.555 1.7941 810.341 5.49121C814.093 9.15966 816 14.7999 816 22.2572V157.061C816 162.031 813.039 165 808.067 165Z" fill="white"/>
<path d="M981.388 33.188H983.43C985.794 33.188 988.187 34.7987 988.187 38.3926V157.061C988.187 158.781 988.526 159.13 990.259 159.13H1014.83C1016.93 159.13 1017.12 158.563 1017.12 157.061V26.5733C1017.12 18.3136 1015.7 12.553 1013 9.91628C1010.25 7.23372 1005.73 5.86952 999.589 5.86952H979.551C975.644 5.86952 972.367 6.05294 969.843 6.40832C967.536 6.73504 965.55 7.32544 963.967 8.15084C962.377 8.97051 961.029 10.0481 959.824 11.441C958.516 12.9542 957.133 15.0063 955.727 17.5398L888.316 128.803C887.696 129.886 886.084 131.806 882.612 131.806H880.575C878.194 131.806 875.813 130.196 875.813 126.602V7.93875C875.813 6.21917 875.463 5.86952 873.741 5.86952H849.165C847.065 5.86952 846.876 6.43698 846.876 7.93875V138.415C846.876 146.669 848.328 152.424 851.076 155.049C853.911 157.755 858.478 159.13 864.635 159.13H884.213C888.167 159.13 891.386 158.947 893.796 158.586C895.999 158.271 897.864 157.669 899.345 156.803C900.871 155.909 902.271 154.74 903.488 153.324C904.796 151.805 906.282 149.719 907.866 147.116L975.833 36.3291C976.436 35.0624 977.933 33.188 981.388 33.188ZM1014.83 165H990.259C985.278 165 982.311 162.031 982.311 157.061V39.0575H981.388C981.227 39.0575 981.106 39.0633 981.032 39.0747L980.928 39.2467L912.892 150.183C911.096 153.095 909.484 155.382 907.923 157.159C906.293 159.067 904.4 160.655 902.3 161.87C900.171 163.114 897.583 163.968 894.645 164.392C891.925 164.799 888.523 165 884.213 165H864.635C856.906 165 850.99 163.08 847.025 159.297C842.968 155.428 841 148.595 841 138.415V7.93875C841 2.96915 844.053 0 849.165 0H873.741C878.722 0 881.689 2.96915 881.689 7.93875V125.937H882.612C883.083 125.937 883.244 125.845 883.244 125.845L950.643 14.5993C952.198 11.8078 953.816 9.42333 955.371 7.6063C957.058 5.6689 959.032 4.09835 961.247 2.94622C963.439 1.8113 966.05 1.02029 969.016 0.596123C971.822 0.200619 975.363 0 979.551 0H999.589C1007.31 0 1013.22 1.92594 1017.11 5.72049C1021.08 9.59529 1023 16.422 1023 26.5733V157.061C1023 162.031 1019.95 165 1014.83 165Z" fill="white"/>
<path d="M1112.6 5.86952C1101.4 5.86952 1091.78 6.94713 1084.05 9.06222C1076.51 11.12 1070.32 14.4044 1065.61 18.8237C1060.93 23.2201 1057.45 29.0266 1055.27 36.0826C1053.02 43.345 1051.87 52.3843 1051.87 62.9483V157.061C1051.87 158.563 1052.06 159.13 1054.16 159.13H1078.71C1080.45 159.13 1080.78 158.781 1080.78 157.061V66.3588C1080.78 60.0766 1081.32 54.786 1082.36 50.6418C1083.46 46.2225 1085.35 42.5999 1087.98 39.8829C1090.62 37.1545 1094.19 35.1999 1098.58 34.0765C1102.66 33.039 1107.83 32.5116 1113.98 32.5116H1206.06C1207.56 32.5116 1208.13 32.311 1208.13 30.2131V7.93875C1208.13 6.21917 1207.77 5.86952 1206.06 5.86952H1112.6ZM1078.71 165H1054.16C1049.06 165 1046 162.031 1046 157.061V62.9483C1046 51.7939 1047.23 42.1757 1049.66 34.3459C1052.15 26.3097 1056.17 19.6491 1061.59 14.5477C1067.01 9.46345 1074.04 5.71476 1082.49 3.39905C1090.74 1.14639 1100.86 0 1112.6 0H1206.06C1211.04 0 1214 2.96915 1214 7.93875V30.2131C1214 35.326 1211.04 38.3812 1206.06 38.3812H1113.98C1108.32 38.3812 1103.64 38.8454 1100.03 39.7626C1096.71 40.6109 1094.07 42.0267 1092.19 43.9641C1090.3 45.9301 1088.9 48.6528 1088.05 52.0633C1087.13 55.749 1086.66 60.5581 1086.66 66.3588V157.061C1086.66 162.031 1083.69 165 1078.71 165Z" fill="white"/>
<path d="M1290.81 37.464C1285.2 37.464 1280.52 37.9341 1276.9 38.8569C1273.59 39.6995 1270.97 41.1153 1269.09 43.0527C1267.2 45.0073 1265.81 47.7701 1264.95 51.2609C1264.03 55.021 1263.56 59.7957 1263.56 65.4532V99.5468C1263.56 105.204 1264.03 109.979 1264.95 113.733C1265.81 117.224 1267.2 119.987 1269.09 121.947C1270.97 123.885 1273.59 125.295 1276.9 126.143C1280.49 127.06 1285.16 127.524 1290.81 127.524H1358.18C1363.82 127.524 1368.51 127.06 1372.09 126.143C1375.41 125.295 1378.03 123.885 1379.9 121.942C1381.79 119.993 1383.18 117.23 1384.03 113.733C1384.95 109.973 1385.42 105.199 1385.42 99.5468V65.4532C1385.42 59.8015 1384.95 55.0267 1384.03 51.2609C1383.18 47.7644 1381.79 45.0073 1379.9 43.0527C1378.03 41.1153 1375.39 39.6995 1372.09 38.8569C1368.48 37.9341 1363.79 37.464 1358.18 37.464H1290.81ZM1358.18 133.394H1290.81C1284.67 133.394 1279.51 132.867 1275.45 131.829C1271.07 130.711 1267.53 128.757 1264.89 126.028C1262.27 123.312 1260.37 119.649 1259.27 115.132C1258.23 110.919 1257.7 105.674 1257.7 99.5468V65.4532C1257.7 59.3257 1258.23 54.081 1259.27 49.8565C1260.38 45.3455 1262.27 41.6828 1264.89 38.9715C1267.53 36.2374 1271.09 34.2885 1275.45 33.1708C1279.55 32.1276 1284.7 31.5945 1290.81 31.5945H1358.18C1364.27 31.5945 1369.45 32.1276 1373.53 33.1651C1377.91 34.2885 1381.47 36.2374 1384.11 38.9658C1386.73 41.6828 1388.61 45.3455 1389.73 49.8565C1390.76 54.081 1391.28 59.3257 1391.28 65.4532V99.5468C1391.28 105.674 1390.76 110.913 1389.73 115.132C1388.61 119.649 1386.73 123.317 1384.12 126.028C1381.47 128.757 1377.91 130.711 1373.55 131.829C1369.43 132.884 1364.41 133.394 1358.18 133.394ZM1289.45 5.86952C1278.26 5.86952 1268.69 6.94713 1260.95 9.06222C1253.45 11.1143 1247.26 14.4044 1242.56 18.8295C1237.89 23.2316 1234.42 29.0381 1232.25 36.0826C1230 43.3393 1228.86 52.3786 1228.86 62.9483V102.046C1228.86 112.627 1230 121.707 1232.25 129.026C1234.42 136.157 1237.89 141.998 1242.56 146.4C1247.25 150.813 1253.43 154.058 1260.94 156.041C1268.66 158.087 1278.24 159.13 1289.45 159.13H1359.55C1370.75 159.13 1380.38 158.087 1388.17 156.041C1395.76 154.052 1401.97 150.813 1406.65 146.4C1411.31 142.009 1414.74 136.174 1416.85 129.055C1419.03 121.712 1420.14 112.621 1420.14 102.046V62.9483C1420.14 52.3843 1419.03 43.3336 1416.85 36.0597C1414.75 29.0209 1411.31 23.2201 1406.65 18.8295C1401.95 14.4044 1395.73 11.12 1388.16 9.06222C1380.35 6.94713 1370.73 5.86952 1359.55 5.86952H1289.45ZM1359.55 165H1289.45C1277.74 165 1267.65 163.894 1259.43 161.716C1250.98 159.48 1243.95 155.766 1238.55 150.676C1233.13 145.563 1229.12 138.862 1226.64 130.752C1224.23 122.876 1223 113.212 1223 102.046V62.9483C1223 51.7825 1224.23 42.1642 1226.66 34.3459C1229.13 26.3211 1233.13 19.6606 1238.55 14.5534C1243.95 9.46345 1250.98 5.70902 1259.41 3.39905C1267.63 1.14639 1277.74 0 1289.45 0H1359.55C1371.25 0 1381.38 1.14639 1389.68 3.39905C1398.21 5.70902 1405.26 9.46345 1410.66 14.5534C1416.09 19.6606 1420.05 26.3326 1422.47 34.3745C1424.81 42.1929 1426 51.8111 1426 62.9483V102.046C1426 113.189 1424.81 122.836 1422.47 130.729C1420.05 138.857 1416.09 145.563 1410.66 150.676C1405.26 155.766 1398.19 159.48 1389.67 161.716C1381.38 163.894 1371.25 165 1359.55 165Z" fill="white"/>
<path d="M110.667 330.703H138.865C145.302 330.703 151.302 328.406 157.24 323.693C161.453 320.349 167.943 311.917 175.026 290.719C178.411 280.151 181.609 267.734 184.49 253.917C187.396 239.969 190.25 223.609 192.984 205.286C195.76 186.609 198.635 165.349 201.547 142.109V142.104C202.984 130.583 204.516 118.057 206.104 104.75H179.49C164.984 104.75 152.958 105.943 143.729 108.297C135.531 110.391 129.036 113.859 124.453 118.599C119.786 123.422 116.344 130.172 114.224 138.661C111.865 148.083 110.667 160.427 110.667 175.354V330.703ZM138.865 350.703H90.6667V175.354C90.6667 158.557 92.026 144.964 94.8229 133.807C97.7969 121.875 102.932 112.078 110.078 104.693C117.276 97.2552 126.932 91.9427 138.786 88.9167C149.625 86.151 163.318 84.75 179.49 84.75H228.625L227.292 95.9271C225.224 113.474 223.24 129.844 221.385 144.589C218.464 167.984 215.557 189.396 212.76 208.229C209.969 226.932 207.052 243.672 204.078 257.99C201.052 272.495 197.667 285.604 194.026 296.943C186.969 318.099 179.01 331.932 169.693 339.344C160.214 346.88 149.849 350.703 138.865 350.703ZM469.849 414.51C470.172 414.646 471.026 414.865 472.531 414.865H537.13C538.651 414.865 539.49 414.641 539.823 414.51C539.958 414.188 540.172 413.339 540.172 411.823V60.375C540.172 45.8802 537 35.4271 530.745 29.3073C524.49 23.2188 512.359 20 495.651 20H175.932C146.958 20 122.13 22.7708 102.12 28.2396C82.8802 33.5052 67.0365 41.8802 55.0625 53.1406C43.1719 64.3229 34.3021 79.1198 28.7292 97.1146C22.9323 115.802 20 139.13 20 166.464V411.823C20 413.422 20.25 414.156 20.3438 414.38C20.599 414.505 21.5156 414.865 23.625 414.865H87.625C88.224 414.865 88.7708 414.828 89.25 414.76L90.625 414.563L92 414.75C92.5469 414.823 93.1563 414.865 93.8229 414.865H154.276C178.172 414.865 196.505 409.495 208.797 398.911C221.531 387.948 231.693 370.922 239 348.297C244.036 333.13 248.625 316.036 252.667 297.401C256.76 278.458 260.625 258.271 264.13 237.406C267.609 216.703 270.677 195.328 273.25 173.87C275.797 152.438 278.094 131.667 280.036 112.125L280.13 111.49C281.063 105.88 282.635 100.708 284.813 96.1094C287.266 90.9219 293.13 84.75 307.182 84.75H447.052C460.891 84.75 469.49 93.125 469.49 106.604V411.823C469.49 413.333 469.719 414.182 469.849 414.51ZM537.13 434.865H472.531C458.318 434.865 449.49 426.036 449.49 411.823V106.604C449.49 105.797 449.411 105.286 449.344 104.99C448.984 104.885 448.266 104.75 447.052 104.75H307.182C304.531 104.75 303.172 105.094 302.599 105.297C301.396 107.99 300.49 111.068 299.906 114.458C297.943 134.021 295.667 154.807 293.104 176.24C290.505 198.016 287.396 219.708 283.849 240.724C280.292 261.896 276.37 282.385 272.214 301.63C268.026 320.969 263.25 338.766 258 354.531C249.583 380.609 237.411 400.672 221.849 414.068C205.823 427.865 183.094 434.865 154.276 434.865H93.8229C92.7448 434.865 91.6927 434.818 90.6771 434.724C89.6927 434.818 88.6667 434.865 87.625 434.865H23.625C9.05208 434.865 0 426.036 0 411.823V166.464C0 137.12 3.23958 111.797 9.625 91.1927C16.2396 69.8542 26.9167 52.151 41.3698 38.5677C55.7448 25.0521 74.4115 15.0833 96.849 8.94792C118.573 3.01042 145.182 0 175.932 0H495.651C518.318 0 534.359 4.90104 544.703 14.9896V14.9948C554.969 25.0156 560.172 40.2865 560.172 60.375V411.823C560.172 426.036 551.344 434.865 537.13 434.865Z" fill="white"/>
</svg>
