<svg width="1426" height="435" viewBox="0 0 1426 435" fill="none" xmlns="http://www.w3.org/2000/svg">
<path d="M705.731 254.984H827.261C833.34 254.984 836.952 258.503 836.952 264.414V411.992C836.952 414.16 837.399 414.601 839.555 414.601H870.718C873.357 414.601 873.617 413.885 873.617 411.992V242.058C873.617 234.723 871.973 229.398 868.721 226.219C865.433 223.025 859.383 221.399 850.709 221.399H682.276C673.595 221.399 667.545 223.025 664.258 226.226C661.027 229.398 659.383 234.723 659.383 242.058V411.992C659.383 413.885 659.621 414.601 662.268 414.601H693.438C695.601 414.601 696.026 414.16 696.026 411.992V264.414C696.026 258.503 699.66 254.984 705.731 254.984ZM870.718 422H839.555C833.296 422 829.569 418.257 829.569 411.992V264.414C829.569 262.868 829.461 262.384 827.261 262.384H705.731C703.518 262.384 703.41 262.868 703.41 264.414V411.992C703.41 418.257 699.682 422 693.438 422H662.268C655.843 422 652 418.257 652 411.992V242.058C652 232.657 654.379 225.547 659.109 220.922C663.89 216.269 671.453 214 682.276 214H850.709C861.525 214 869.11 216.269 873.869 220.922C878.599 225.547 881 232.657 881 242.058V411.992C881 418.257 877.157 422 870.718 422Z" fill="#11864D" stroke="#11864D" stroke-width="3"/>
<path d="M991.862 340.66H1077.68L1035.27 262.167C1035.25 262.138 1035.23 262.116 1035.21 262.094H1033.79C1033.78 262.131 1033.74 262.174 1033.72 262.232L991.862 340.66ZM1090.08 348.059H979.534L1027.27 258.648C1028.73 256.068 1030.98 254.695 1033.65 254.695H1035.36C1038.03 254.695 1040.28 256.068 1041.69 258.554L1090.08 348.059ZM965.514 373.906H1104.04L1125.48 413.018C1125.82 413.784 1126.4 414.601 1128.7 414.601H1164.94C1165.18 414.601 1165.38 414.586 1165.55 414.572C1165.48 414.297 1165.35 413.893 1165.07 413.372L1070.68 241.277C1066.26 233.293 1061.8 227.924 1057.45 225.323C1053.1 222.721 1047.6 221.399 1041.07 221.399H1024.23C1018.82 221.399 1014.25 222.664 1010.25 225.25C1006.21 227.866 1001.92 233.257 997.476 241.277L903.864 413.481C903.641 413.936 903.511 414.29 903.461 414.55C903.677 414.579 903.972 414.601 904.346 414.601H941.447C943.419 414.601 944.196 413.885 944.786 412.816L965.514 373.906ZM1164.94 422H1128.7C1124.11 422 1120.61 419.955 1118.84 416.256L1099.68 381.305H969.933L951.271 416.313C949.263 420.035 945.873 422 941.447 422H904.346C899.164 422 897.214 419.688 896.479 417.744C895.63 415.511 895.904 412.917 897.343 410.049L991.027 237.708C996.137 228.466 1001.11 222.36 1006.25 219.036C1011.39 215.698 1017.45 214 1024.23 214H1041.07C1048.94 214 1055.72 215.676 1061.23 218.964C1066.78 222.288 1071.99 228.415 1077.11 237.686L1077.13 237.693L1171.59 409.919C1173.08 412.903 1173.38 415.49 1172.53 417.744C1171.93 419.341 1170.13 422 1164.94 422Z" fill="#11864D" stroke="#11864D" stroke-width="3"/>
<path d="M1232.5 329.771H1263.19C1272.49 329.771 1279.35 330.753 1284.22 332.769C1289.15 334.836 1293.77 338.651 1297.95 344.114L1350.26 412.31C1351.19 413.618 1351.8 414.088 1352.1 414.254C1352.11 414.261 1352.83 414.601 1355.32 414.601H1391.73C1392.14 414.601 1392.44 414.565 1392.65 414.536C1392.7 413.459 1392.52 413.105 1392.52 413.105L1334.22 338.601C1327.52 329.829 1320.58 323.188 1313.6 318.853L1309.31 316.194L1313.13 312.891C1315.64 310.731 1318.25 308.144 1320.91 305.196C1323.59 302.205 1326.52 298.541 1329.63 294.307L1384.85 222.317C1384.97 222.122 1385.06 221.891 1385.01 221.486C1384.82 221.443 1384.52 221.399 1384.06 221.399H1348.79C1346.04 221.399 1345.25 221.746 1345.21 221.76C1344.99 221.905 1344.38 222.375 1343.54 223.567L1294.57 289.552C1292.33 292.435 1290.16 294.805 1288.1 296.677C1285.92 298.678 1283.46 300.254 1280.8 301.359C1278.21 302.443 1275.18 303.166 1271.79 303.483C1268.63 303.787 1264.81 303.931 1260.07 303.931H1232.5V224.008C1232.5 221.84 1232.07 221.399 1229.91 221.399H1199.2C1196.58 221.399 1196.34 222.114 1196.34 224.008V411.992C1196.34 413.885 1196.58 414.601 1199.2 414.601H1229.91C1232.07 414.601 1232.5 414.16 1232.5 411.992V329.771ZM1391.73 422H1355.32C1352.11 422 1349.88 421.559 1348.31 420.605C1346.94 419.774 1345.63 418.496 1344.37 416.718L1292.15 348.637C1288.75 344.201 1285.15 341.166 1281.41 339.612C1277.51 337.994 1271.38 337.17 1263.19 337.17H1239.85V411.992C1239.85 418.257 1236.14 422 1229.91 422H1199.2C1192.81 422 1189 418.257 1189 411.992V224.008C1189 217.743 1192.81 214 1199.2 214H1229.91C1236.14 214 1239.85 217.743 1239.85 224.008V296.532H1260.07C1264.52 296.532 1268.23 296.388 1271.09 296.12C1273.75 295.868 1276.06 295.333 1277.99 294.524C1279.86 293.743 1281.63 292.616 1283.18 291.178C1284.95 289.596 1286.8 287.536 1288.75 285.058L1337.61 219.217C1338.8 217.504 1340.09 216.226 1341.5 215.38C1343.08 214.426 1345.34 214 1348.79 214H1384.06C1389.85 214 1391.52 217.555 1391.98 219.087C1392.78 221.825 1392.33 224.456 1390.75 226.717L1335.48 298.772C1332.29 303.129 1329.2 306.988 1326.34 310.16C1324.71 311.988 1323.06 313.693 1321.44 315.261C1327.79 319.929 1334.04 326.23 1340.02 334.063L1398.32 408.553C1399.66 410.273 1400.2 412.65 1399.93 415.627C1399.8 417.13 1398.79 422 1391.73 422Z" fill="#11864D" stroke="#11864D" stroke-width="3"/>
<path d="M736.622 43.5412H787.047C791.584 43.5412 794.305 46.1635 794.305 50.5627V160.542C794.305 162.158 794.634 162.486 796.251 162.486H819.536C821.148 162.486 821.482 162.158 821.482 160.542V33.9083C821.482 28.4429 820.253 24.4745 817.823 22.1053C815.381 19.7253 810.925 18.5138 804.582 18.5138H724.443C718.537 18.5138 714.522 19.8384 712.523 22.4499C710.276 25.3737 708.88 29.466 708.368 34.6082C707.086 45.7381 705.9 55.6619 704.838 64.1426C703.777 72.6394 702.726 80.3501 701.734 87.0593C700.727 93.763 699.681 99.7776 698.603 104.941C697.526 110.137 696.313 114.833 695.004 118.887C692.519 126.345 689.733 131.202 686.505 133.765C683.234 136.36 679.678 137.674 675.921 137.674H659.685C657.712 137.674 657.518 138.207 657.518 139.618V160.542C657.518 161.953 657.712 162.486 659.685 162.486H681.483C690.299 162.486 697.1 160.483 701.691 156.531C706.412 152.476 710.152 146.214 712.841 137.911C714.673 132.387 716.328 126.2 717.777 119.49C719.27 112.663 720.66 105.372 721.932 97.8338C723.199 90.3062 724.303 82.5901 725.23 74.9009C726.141 67.2279 726.955 59.738 727.671 52.6411L727.698 52.4581C728.016 50.5035 728.566 48.7158 729.31 47.1435C730.096 45.4958 732.004 43.5412 736.622 43.5412ZM819.536 168H796.251C791.573 168 788.787 165.211 788.787 160.542V50.5627C788.787 49.4158 788.701 49.055 787.047 49.055H736.622C734.887 49.055 734.332 49.4319 734.294 49.5073C733.782 50.595 733.394 51.8658 733.146 53.2819C732.446 60.3895 731.616 67.8848 730.705 75.5578C729.768 83.3331 728.652 91.1354 727.364 98.7492C726.082 106.374 724.675 113.745 723.172 120.659C721.684 127.557 719.971 133.937 718.084 139.629C715.088 148.885 710.782 155.987 705.291 160.709C699.665 165.545 691.662 168 681.483 168H659.685C654.872 168 652 165.211 652 160.542V139.618C652 134.944 654.872 132.16 659.685 132.16H675.921C678.433 132.16 680.777 131.272 683.067 129.447C684.684 128.176 687.136 125.01 689.76 117.175C691 113.331 692.158 108.824 693.209 103.816C694.255 98.7599 695.289 92.8477 696.27 86.2462C697.267 79.5801 698.302 71.9125 699.363 63.4641C700.425 54.9942 701.61 45.0866 702.893 34.0213C703.502 27.8829 705.264 22.8537 708.136 19.0953C711.24 15.0515 716.732 13 724.443 13H804.582C812.525 13 818.114 14.6854 821.676 18.1584C825.205 21.6045 827 26.9029 827 33.9083V160.542C827 165.211 824.214 168 819.536 168Z" fill="#11864D" stroke="#11864D" stroke-width="3"/>
<path d="M982.674 44.1766H984.604C986.839 44.1766 989.1 45.6897 989.1 49.0658V160.542C989.1 162.158 989.42 162.486 991.058 162.486H1014.28C1016.27 162.486 1016.45 161.953 1016.45 160.542V37.9628C1016.45 30.2037 1015.1 24.7922 1012.55 22.3153C1009.95 19.7953 1005.68 18.5138 999.875 18.5138H980.939C977.246 18.5138 974.149 18.6861 971.763 19.0199C969.583 19.3269 967.707 19.8815 966.21 20.6568C964.708 21.4268 963.434 22.4391 962.295 23.7476C961.059 25.1691 959.752 27.0968 958.423 29.4768L894.716 133.996C894.131 135.014 892.607 136.818 889.326 136.818H887.401C885.151 136.818 882.9 135.305 882.9 131.929V20.4576C882.9 18.8422 882.569 18.5138 880.942 18.5138H857.717C855.732 18.5138 855.553 19.0469 855.553 20.4576V143.026C855.553 150.78 856.925 156.186 859.522 158.652C862.201 161.194 866.518 162.486 872.336 162.486H890.839C894.575 162.486 897.618 162.314 899.895 161.975C901.977 161.679 903.74 161.113 905.139 160.3C906.581 159.46 907.905 158.362 909.054 157.032C910.291 155.605 911.695 153.645 913.192 151.2L977.425 47.1274C977.994 45.9374 979.409 44.1766 982.674 44.1766ZM1014.28 168H991.058C986.351 168 983.547 165.211 983.547 160.542V49.6904H982.674C982.522 49.6904 982.408 49.6958 982.338 49.7066L982.24 49.8681L917.942 154.081C916.245 156.816 914.721 158.965 913.246 160.634C911.706 162.427 909.916 163.919 907.932 165.06C905.92 166.228 903.474 167.031 900.698 167.429C898.127 167.812 894.912 168 890.839 168H872.336C865.032 168 859.441 166.196 855.694 162.642C851.86 159.008 850 152.589 850 143.026V20.4576C850 15.7892 852.885 13 857.717 13H880.942C885.649 13 888.453 15.7892 888.453 20.4576V131.304H889.326C889.771 131.304 889.923 131.218 889.923 131.218L953.619 26.7145C955.088 24.0922 956.617 21.8522 958.087 20.1453C959.681 18.3253 961.547 16.85 963.64 15.7677C965.711 14.7015 968.179 13.9585 970.982 13.56C973.634 13.1885 976.98 13 980.939 13H999.875C1007.17 13 1012.75 14.8092 1016.44 18.3738C1020.18 22.0138 1022 28.4268 1022 37.9628V160.542C1022 165.211 1019.12 168 1014.28 168Z" fill="#11864D" stroke="#11864D" stroke-width="3"/>
<path d="M1105.64 18.5138C1095.1 18.5138 1086.06 19.5261 1078.78 21.513C1071.7 23.446 1065.87 26.5314 1061.44 30.6829C1057.04 34.8129 1053.77 40.2674 1051.71 46.8958C1049.6 53.7181 1048.52 62.2095 1048.52 72.1333V160.542C1048.52 161.953 1048.7 162.486 1050.68 162.486H1073.77C1075.4 162.486 1075.71 162.158 1075.71 160.542V75.3371C1075.71 69.4356 1076.22 64.4656 1077.19 60.5726C1078.23 56.4211 1080.01 53.0181 1082.48 50.4658C1084.97 47.9027 1088.32 46.0666 1092.45 45.0112C1096.28 44.0366 1101.15 43.5412 1106.93 43.5412H1193.53C1194.94 43.5412 1195.48 43.3528 1195.48 41.382V20.4576C1195.48 18.8422 1195.14 18.5138 1193.53 18.5138H1105.64ZM1073.77 168H1050.68C1045.87 168 1043 165.211 1043 160.542V72.1333C1043 61.6549 1044.16 52.6196 1046.44 45.2643C1048.79 37.7151 1052.57 31.4583 1057.66 26.666C1062.76 21.8899 1069.37 18.3684 1077.32 16.193C1085.07 14.0769 1094.6 13 1105.64 13H1193.53C1198.21 13 1201 15.7892 1201 20.4576V41.382C1201 46.1851 1198.21 49.055 1193.53 49.055H1106.93C1101.61 49.055 1097.21 49.4912 1093.82 50.3527C1090.69 51.1496 1088.21 52.4796 1086.44 54.2996C1084.66 56.1465 1083.35 58.7042 1082.55 61.908C1081.68 65.3703 1081.24 69.8879 1081.24 75.3371V160.542C1081.24 165.211 1078.45 168 1073.77 168Z" fill="#11864D" stroke="#11864D" stroke-width="3"/>
<path d="M1273.47 48.1935C1268.22 48.1935 1263.83 48.635 1260.45 49.5019C1257.35 50.2935 1254.9 51.6235 1253.14 53.4434C1251.37 55.2796 1250.07 57.8749 1249.26 61.1541C1248.4 64.6864 1247.96 69.1718 1247.96 74.4863V106.514C1247.96 111.828 1248.4 116.314 1249.26 119.84C1250.07 123.12 1251.37 125.715 1253.14 127.557C1254.9 129.377 1257.35 130.701 1260.45 131.498C1263.81 132.36 1268.18 132.796 1273.47 132.796H1336.53C1341.8 132.796 1346.19 132.36 1349.55 131.498C1352.65 130.701 1355.1 129.377 1356.85 127.551C1358.62 125.72 1359.92 123.125 1360.72 119.84C1361.58 116.308 1362.02 111.823 1362.02 106.514V74.4863C1362.02 69.1771 1361.58 64.6918 1360.72 61.1541C1359.92 57.8696 1358.62 55.2796 1356.85 53.4434C1355.1 51.6235 1352.63 50.2935 1349.55 49.5019C1346.16 48.635 1341.78 48.1935 1336.53 48.1935H1273.47ZM1336.53 138.31H1273.47C1267.72 138.31 1262.89 137.814 1259.09 136.84C1254.99 135.79 1251.67 133.953 1249.21 131.39C1246.75 128.838 1244.98 125.397 1243.95 121.154C1242.97 117.197 1242.48 112.27 1242.48 106.514V74.4863C1242.48 68.7302 1242.97 63.8033 1243.95 59.8349C1244.99 55.5973 1246.75 52.1565 1249.21 49.6096C1251.67 47.0412 1255.01 45.2105 1259.09 44.1605C1262.93 43.1805 1267.75 42.6797 1273.47 42.6797H1336.53C1342.23 42.6797 1347.07 43.1805 1350.89 44.1551C1354.99 45.2105 1358.32 47.0412 1360.79 49.6043C1363.24 52.1565 1365.01 55.5973 1366.05 59.8349C1367.02 63.8033 1367.5 68.7302 1367.5 74.4863V106.514C1367.5 112.27 1367.02 117.191 1366.05 121.154C1365.01 125.397 1363.24 128.843 1360.8 131.39C1358.32 133.953 1354.99 135.79 1350.91 136.84C1347.06 137.83 1342.35 138.31 1336.53 138.31ZM1272.19 18.5138C1261.72 18.5138 1252.76 19.5261 1245.52 21.513C1238.5 23.4407 1232.71 26.5314 1228.31 30.6883C1223.94 34.8236 1220.69 40.2782 1218.66 46.8958C1216.55 53.7127 1215.48 62.2041 1215.48 72.1333V108.861C1215.48 118.801 1216.55 127.33 1218.66 134.206C1220.69 140.905 1223.94 146.392 1228.31 150.527C1232.69 154.673 1238.48 157.721 1245.51 159.584C1252.73 161.506 1261.71 162.486 1272.19 162.486H1337.81C1348.29 162.486 1357.3 161.506 1364.6 159.584C1371.69 157.715 1377.51 154.673 1381.89 150.527C1386.25 146.403 1389.46 140.921 1391.43 134.233C1393.47 127.336 1394.52 118.796 1394.52 108.861V72.1333C1394.52 62.2095 1393.47 53.7073 1391.43 46.8743C1389.47 40.262 1386.25 34.8129 1381.89 30.6883C1377.49 26.5314 1371.67 23.446 1364.58 21.513C1357.28 19.5261 1348.27 18.5138 1337.81 18.5138H1272.19ZM1337.81 168H1272.19C1261.23 168 1251.79 166.961 1244.1 164.915C1236.19 162.815 1229.61 159.325 1224.55 154.544C1219.48 149.741 1215.73 143.446 1213.41 135.827C1211.15 128.429 1210 119.35 1210 108.861V72.1333C1210 61.6441 1211.15 52.6088 1213.43 45.2643C1215.74 37.7259 1219.48 31.469 1224.55 26.6714C1229.61 21.8899 1236.19 18.363 1244.08 16.193C1251.77 14.0769 1261.23 13 1272.19 13H1337.81C1348.75 13 1358.24 14.0769 1366.01 16.193C1373.99 18.363 1380.59 21.8899 1385.65 26.6714C1390.72 31.469 1394.43 37.7367 1396.7 45.2912C1398.89 52.6358 1400 61.6711 1400 72.1333V108.861C1400 119.329 1398.89 128.391 1396.7 135.806C1394.43 143.441 1390.72 149.741 1385.65 154.544C1380.59 159.325 1373.97 162.815 1365.99 164.915C1358.24 166.961 1348.75 168 1337.81 168Z" fill="#11864D" stroke="#11864D" stroke-width="3"/>
<path d="M110.667 330.703H138.865C145.302 330.703 151.302 328.406 157.24 323.693C161.453 320.349 167.943 311.917 175.026 290.719C178.411 280.151 181.609 267.734 184.49 253.917C187.396 239.969 190.25 223.609 192.984 205.286C195.76 186.609 198.635 165.349 201.547 142.109V142.104C202.984 130.583 204.516 118.057 206.104 104.75H179.49C164.984 104.75 152.958 105.943 143.729 108.297C135.531 110.391 129.036 113.859 124.453 118.599C119.786 123.422 116.344 130.172 114.224 138.661C111.865 148.083 110.667 160.427 110.667 175.354V330.703ZM138.865 350.703H90.6667V175.354C90.6667 158.557 92.026 144.964 94.8229 133.807C97.7969 121.875 102.932 112.078 110.078 104.693C117.276 97.2552 126.932 91.9427 138.786 88.9167C149.625 86.151 163.318 84.75 179.49 84.75H228.625L227.292 95.9271C225.224 113.474 223.24 129.844 221.385 144.589C218.464 167.984 215.557 189.396 212.76 208.229C209.969 226.932 207.052 243.672 204.078 257.99C201.052 272.495 197.667 285.604 194.026 296.943C186.969 318.099 179.01 331.932 169.693 339.344C160.214 346.88 149.849 350.703 138.865 350.703ZM469.849 414.51C470.172 414.646 471.026 414.865 472.531 414.865H537.13C538.651 414.865 539.49 414.641 539.823 414.51C539.958 414.188 540.172 413.339 540.172 411.823V60.375C540.172 45.8802 537 35.4271 530.745 29.3073C524.49 23.2188 512.359 20 495.651 20H175.932C146.958 20 122.13 22.7708 102.12 28.2396C82.8802 33.5052 67.0365 41.8802 55.0625 53.1406C43.1719 64.3229 34.3021 79.1198 28.7292 97.1146C22.9323 115.802 20 139.13 20 166.464V411.823C20 413.422 20.25 414.156 20.3438 414.38C20.599 414.505 21.5156 414.865 23.625 414.865H87.625C88.224 414.865 88.7708 414.828 89.25 414.76L90.625 414.563L92 414.75C92.5469 414.823 93.1563 414.865 93.8229 414.865H154.276C178.172 414.865 196.505 409.495 208.797 398.911C221.531 387.948 231.693 370.922 239 348.297C244.036 333.13 248.625 316.036 252.667 297.401C256.76 278.458 260.625 258.271 264.13 237.406C267.609 216.703 270.677 195.328 273.25 173.87C275.797 152.438 278.094 131.667 280.036 112.125L280.13 111.49C281.063 105.88 282.635 100.708 284.813 96.1094C287.266 90.9219 293.13 84.75 307.182 84.75H447.052C460.891 84.75 469.49 93.125 469.49 106.604V411.823C469.49 413.333 469.719 414.182 469.849 414.51ZM537.13 434.865H472.531C458.318 434.865 449.49 426.036 449.49 411.823V106.604C449.49 105.797 449.411 105.286 449.344 104.99C448.984 104.885 448.266 104.75 447.052 104.75H307.182C304.531 104.75 303.172 105.094 302.599 105.297C301.396 107.99 300.49 111.068 299.906 114.458C297.943 134.021 295.667 154.807 293.104 176.24C290.505 198.016 287.396 219.708 283.849 240.724C280.292 261.896 276.37 282.385 272.214 301.63C268.026 320.969 263.25 338.766 258 354.531C249.583 380.609 237.411 400.672 221.849 414.068C205.823 427.865 183.094 434.865 154.276 434.865H93.8229C92.7448 434.865 91.6927 434.818 90.6771 434.724C89.6927 434.818 88.6667 434.865 87.625 434.865H23.625C9.05208 434.865 0 426.036 0 411.823V166.464C0 137.12 3.23958 111.797 9.625 91.1927C16.2396 69.8542 26.9167 52.151 41.3698 38.5677C55.7448 25.0521 74.4115 15.0833 96.849 8.94792C118.573 3.01042 145.182 0 175.932 0H495.651C518.318 0 534.359 4.90104 544.703 14.9896V14.9948C554.969 25.0156 560.172 40.2865 560.172 60.375V411.823C560.172 426.036 551.344 434.865 537.13 434.865Z" fill="#11864D"/>
</svg>
